<?xml version="1.0" encoding="utf-8"?>
<!-- Generator: Adobe Illustrator 19.0.0, SVG Export Plug-In . SVG Version: 6.00 Build 0)  -->
<svg version="1.1" id="Layer_1" xmlns="http://www.w3.org/2000/svg" xmlns:xlink="http://www.w3.org/1999/xlink" x="0px" y="0px"
	 viewBox="0 0 193 193" style="enable-background:new 0 0 193 193;" xml:space="preserve">
<style type="text/css">
	.st0{fill:#EF4137;}
</style>
<g id="XMLID_2_">
	<path id="XMLID_13_" class="st0" d="M45.4,92.2c-6.8,11-9.9,18-10,18.3c-0.4,0.9-0.2,2,0.5,2.7l44.3,44.1c0.5,0.5,1.1,0.7,1.7,0.7
		c0.3,0,0.7-0.1,1-0.2c0.3-0.1,7.3-3.2,18.4-10c1.1-0.7,1.5-2.2,0.8-3.3c-0.7-1.1-2.2-1.5-3.3-0.8c-7.9,4.8-13.7,7.8-16.3,9
		l-41.9-41.7c1.2-2.6,4.2-8.4,9-16.2c0.7-1.1,0.3-2.6-0.8-3.3C47.6,90.7,46.1,91.1,45.4,92.2z"/>
	<path id="XMLID_12_" class="st0" d="M66.7,151.5c-0.7-0.7-1.8-0.9-2.8-0.5c-4.3,2-9.5,1.8-13.9-0.6c-1.2-0.6-2.6-0.2-3.3,1
		c-0.6,1.2-0.2,2.6,1,3.3c5.2,2.8,11.3,3.3,16.7,1.4l3.1,3.1c-13.2,14.7-35.7,13.2-44.1,12.1c2-4.5,1.6-9.8,1.1-15.4
		c-0.8-9.9-1.6-20.2,9.6-29.9l3.4,3.4c-1.3,5.5-1,10.7,1,15.2c0,0,1.7,4.7-0.3,8.1c-1.2,2-3.4,3.2-6.8,3.7c-1.3,0.2-2.2,1.4-2,2.7
		s1.4,2.2,2.8,2c4.9-0.7,8.3-2.8,10.3-6.1c3.2-5.4,0.7-11.9,0.6-12.3c-1.7-3.9-1.8-8.6-0.4-13.4c0.2-0.8,0-1.7-0.6-2.4l-5.9-5.9
		c-0.9-0.9-2.2-0.9-3.2-0.2c-15,11.7-13.9,24.9-13.1,35.5c0.5,6.2,0.9,11.6-2,15.3c-0.5,0.6-0.7,1.5-0.4,2.3
		c0.3,0.8,0.9,1.4,1.7,1.6c0.6,0.1,6.6,1.5,14.7,1.5c11.9,0,28.3-2.8,39-16.3c0.8-1,0.7-2.3-0.2-3.2L66.7,151.5z"/>
	<path id="XMLID_9_" class="st0" d="M157.5,68.9c4.4-4.4,6.8-10.2,6.8-16.4s-2.4-11.7-6.8-16.1c-4.4-4.4-10.2-6.5-16.4-6.5h0
		c-6.2,0-12.1,2.1-16.4,6.5c-4.4,4.4-6.8,10-6.8,16.2c0,6.2,2.4,11.9,6.8,16.3c4.5,4.5,10.5,6.7,16.5,6.7S152.9,73.4,157.5,68.9z
		 M122.6,52.5c0-4.9,1.9-9.6,5.4-13.1c3.5-3.5,8.1-5.5,13-5.5c0,0,0,0,0,0c4.9,0,9.5,2,13,5.4c3.5,3.5,5.4,8.1,5.4,13
		c0,4.9-1.9,9.5-5.4,13c-7.2,7.2-18.9,7.2-26.1,0C124.5,62,122.6,57.4,122.6,52.5z"/>
	<path id="XMLID_8_" class="st0" d="M193.2,3.2c0.1-0.7-0.2-1.5-0.7-2c-0.5-0.5-1.2-0.8-2-0.7l-7.8,0.9c-4.8-0.7-50.2-6-98.5,42.1
		c-1.7,1.7-3.4,3.4-5,5.1l-29.4,0c-0.7,0-1.4,0.3-1.8,0.9L0.6,105.5c-0.8,1-0.7,2.4,0.1,3.3l6.7,6.7c0.8,0.8,2,0.9,2.9,0.4
		l27.2-15.5c1.2-0.7,1.6-2.1,0.9-3.3c-0.7-1.2-2.1-1.6-3.3-0.9L9.5,110.7l-3.8-3.8l45.2-53.4l29.3,0c0.7,0,1.3-0.3,1.8-0.8
		c1.8-1.9,3.7-3.9,5.6-5.8c25.2-25.1,49.5-34.8,65.6-38.6c17.3-4.1,28.9-2.2,29-2.2c0.2,0,0.5,0,0.7,0l5.1-0.6l-0.6,5.1
		c0,0.2,0,0.5,0,0.7c0,0.1,1.9,11.6-2.2,28.9c-3.8,16-13.5,40.2-38.7,65.3c-2,1.9-3.9,3.8-5.8,5.6c-0.5,0.5-0.8,1.1-0.8,1.8l0,29.2
		l-53.6,45l-3.8-3.7l16-25.1c0.7-1.1,0.4-2.6-0.7-3.3c-1.1-0.7-2.6-0.4-3.3,0.7l-17,26.7c-0.6,1-0.5,2.2,0.3,3l6.7,6.7
		c0.5,0.5,1.1,0.7,1.7,0.7c0.6,0,1.1-0.2,1.6-0.6l56.1-47.2c0.5-0.5,0.9-1.1,0.9-1.8l0-29.3c1.7-1.6,3.4-3.3,5.2-5
		C198.3,61,193,15.8,192.3,11L193.2,3.2z"/>
	<path id="XMLID_7_" class="st0" d="M84,104.9l-19.9,19.9c-0.9,0.9-0.9,2.5,0,3.4c0.5,0.5,1.1,0.7,1.7,0.7c0.6,0,1.2-0.2,1.7-0.7
		l19.9-19.9c0.9-0.9,0.9-2.5,0-3.4C86.5,104,85,104,84,104.9z"/>
	<path id="XMLID_6_" class="st0" d="M74.1,95l-19.9,19.9c-0.9,0.9-0.9,2.5,0,3.4c0.5,0.5,1.1,0.7,1.7,0.7c0.6,0,1.2-0.2,1.7-0.7
		l19.9-19.9c0.9-0.9,0.9-2.5,0-3.4S75,94.1,74.1,95z"/>
	<path id="XMLID_5_" class="st0" d="M73.9,137.9c0.5,0.5,1.1,0.7,1.7,0.7s1.2-0.2,1.7-0.7l19.9-19.9c0.9-0.9,0.9-2.5,0-3.4
		c-0.9-0.9-2.5-0.9-3.4,0l-19.9,19.9C73,135.5,73,137,73.9,137.9z"/>
	<path id="XMLID_4_" class="st0" d="M73.5,62H51.3c-1.3,0-2.4,0.7-2.4,2s1.1,2,2.4,2h22.1c1.3,0,2.4-0.7,2.4-2S74.8,62,73.5,62z"/>
	<path id="XMLID_3_" class="st0" d="M127,119.8v22.1c0,1.3,1.2,2.4,2.5,2.4s2.5-1.1,2.5-2.4v-22.1c0-1.3-1.2-2.4-2.5-2.4
		S127,118.5,127,119.8z"/>
</g>
</svg>
