<?xml version="1.0" encoding="utf-8"?>
<!-- Generator: Adobe Illustrator 19.0.0, SVG Export Plug-In . SVG Version: 6.00 Build 0)  -->
<svg version="1.1" id="Layer_1" xmlns="http://www.w3.org/2000/svg" xmlns:xlink="http://www.w3.org/1999/xlink" x="0px" y="0px"
	 viewBox="0 0 110.8 169.9" style="enable-background:new 0 0 110.8 169.9;" xml:space="preserve">
<style type="text/css">
	.st0{fill:#D7E0E5;}
</style>
<g>
	<g>
		<path class="st0" d="M73.4,127.4c1.2,4.2,5.1,6.9,9.2,6.9c0.9,0,1.8-0.1,2.7-0.4c5.1-1.5,8-6.8,6.5-11.9L80,81.8
			c-0.7-2.4-2.3-4.4-4.5-5.7c-0.6,0.4-1.2,0.8-1.8,1.1c-6.3,3.5-14.7,5.6-26.5,6.7c-0.2,0-0.5,0-0.7,0c-4,0-7.3-3-7.7-7
			c-0.2-2,0.4-4,1.7-5.6c1.3-1.6,3.2-2.6,5.2-2.7c7.2-0.7,13.2-1.8,17.4-3.4c0.3-0.1,0.6-0.3,0.9-0.4L67,50.4c1.2,1.5,2.2,3.1,3,4.6
			c0.4,0.7,0.6,1.4,0.8,2c0.3,1,0.5,1.9,0.5,2.6c0,0.2,0,0.4,0,0.6l0,0c-0.1,0.7-0.3,1.3-0.9,2.1c-0.8,1.1-2.8,2.7-6.7,4.2
			c-3.9,1.5-9.8,2.8-17.8,3.5c-3.4,0.3-5.9,3.3-5.6,6.7c0.3,3.2,3,5.6,6.1,5.6c0.2,0,0.4,0,0.6,0c11.7-1.1,19.9-3.2,25.9-6.5
			c3-1.7,5.4-3.7,7.3-6.1c1.8-2.4,2.9-5.2,3.2-7.9c0,0,0,0,0,0c0.1-0.8,0.1-1.5,0.1-2.2c0-1.2-0.1-2.4-0.3-3.5
			c-0.5-2.6-1.4-5-2.6-7.2c-2.5-4.7-5.8-8.5-8.5-11.3c-1.7-1.7-3.1-3-4-3.8c-0.8-1-2-1.8-3.4-2.1l-1.5-0.3
			c-3.3,2.9-7.7,4.7-12.4,4.7c-1.3,0-2.5-0.1-3.8-0.4c-4.9-1-9.2-3.9-12-8.1c-0.4-0.6-0.8-1.3-1.1-2c-0.1,0-0.2,0-0.3,0
			c-2.7,0.1-10.7,1-18.4,8C11.2,37.5,7.3,43,4.5,50.6C1.7,58.3,0,68,0,80.4c0,2,0,4,0.1,6.1c0.1,3.3,2.9,5.9,6.1,5.9
			c0.1,0,0.2,0,0.3,0c3.4-0.1,6-3,5.9-6.4c-0.1-1.9-0.1-3.8-0.1-5.6c0-11.3,1.6-19.6,3.7-25.5c2.8-7.6,6.5-11.5,9.8-13.7
			c-3.1,12.6-8,32.9-8,40.9c0,0.4-0.1,0.7-0.1,1.1v77.3c0,5.3,4.2,9.5,9.5,9.5c5.3,0,9.5-4.3,9.5-9.5v-61c3,3.5,7.2,5,11.4,3.5
			l16.2-5.9L73.4,127.4z"/>
		<rect x="53.8" y="138.9" class="st0" width="57" height="31"/>
		<ellipse class="st0" cx="50.9" cy="17.3" rx="17.3" ry="17.3"/>
	</g>
	
		<text id="XMLID_2_" transform="matrix(1 0 0 1 27.6468 243.3112)" style="fill:#010101; font-family:'Roboto-Regular'; font-size:22px;">Name Surname</text>
</g>
</svg>
