<?xml version="1.0" encoding="UTF-8"?>
<!DOCTYPE svg PUBLIC "-//W3C//DTD SVG 1.1//EN" "http://www.w3.org/Graphics/SVG/1.1/DTD/svg11.dtd">
<!-- Creator: CorelDRAW X7 -->
<svg xmlns="http://www.w3.org/2000/svg" xml:space="preserve" width="2550px" height="3300px" version="1.1" style="shape-rendering:geometricPrecision; text-rendering:geometricPrecision; image-rendering:optimizeQuality; fill-rule:evenodd; clip-rule:evenodd"
viewBox="0 0 2550 3300"
 xmlns:xlink="http://www.w3.org/1999/xlink">
 <defs>
  <style type="text/css">
   <![CDATA[
    .fil0 {fill:#4A61A9;fill-rule:nonzero}
   ]]>
  </style>
 </defs>
 <g id="Layer_x0020_1">
  <metadata id="CorelCorpID_0Corel-Layer"/>
  <g id="_297226168">
   <g>
    <path class="fil0" d="M934 3220c18,23 46,36 75,36l1192 0c39,0 74,-24 88,-60 2,-4 25,-65 34,-89 25,-69 50,-144 73,-223 37,-126 66,-250 85,-367 40,-252 29,-454 -55,-592 -88,-144 -245,-248 -449,-321 -107,-38 -219,-66 -332,-85 -39,-7 -64,-9 -64,-9l0 -866c0,-157 -128,-285 -286,-285l-48 0c-158,0 -286,128 -286,285l0 1501 -317 -277c-204,-178 -488,-131 -622,103 -21,37 -18,79 6,109l906 1140zm-682 -1229l0 0c78,-59 181,-55 266,20l476 414c61,54 158,10 158,-71l0 -1710c0,-52 43,-95 95,-95l48 0c52,0 95,43 95,95l0 950c0,50 39,91 89,95 6,0 18,1 35,3 30,4 63,8 99,14 102,18 205,42 299,76 167,60 290,141 351,241 54,90 63,253 30,465 -18,108 -45,224 -80,343 -22,75 -46,146 -69,212 -9,23 -8,23 -8,23l-1079 0 -835 -1047c0,0 14,-16 30,-28z"/>
    <path class="fil0" d="M1902 538c-60,-292 -320,-511 -631,-511 -355,0 -643,287 -643,641 0,238 130,452 336,564 46,25 104,8 129,-39 26,-46 9,-103 -38,-128 -145,-79 -237,-230 -237,-397 0,-249 203,-451 453,-451 251,0 453,202 453,451 0,165 -90,315 -232,394 -46,26 -62,84 -37,129 26,46 84,63 130,37 185,-103 308,-289 327,-500l280 0 0 95c0,26 18,35 39,20l256 -182c22,-16 22,-40 0,-55l-256 -182c-22,-16 -39,-7 -39,19l0 95 -290 0z"/>
   </g>
  </g>
 </g>
</svg>
