<?xml version="1.0" encoding="utf-8"?>
<!-- Generator: Adobe Illustrator 19.0.0, SVG Export Plug-In . SVG Version: 6.00 Build 0)  -->
<svg version="1.1" id="Layer_1" xmlns="http://www.w3.org/2000/svg" xmlns:xlink="http://www.w3.org/1999/xlink" x="0px" y="0px"
	 viewBox="0 0 193 193" style="enable-background:new 0 0 193 193;" xml:space="preserve">
<style type="text/css">
	.st0{fill:#EF4137;}
</style>
<g id="XMLID_2_" transform="translate(0,-952.36218)">
	<path id="XMLID_3_" class="st0" d="M170.1,952.4c-0.4,0.1-0.7,0.3-1,0.6l-20.3,17.9c-0.5,0.4-0.8,1-0.8,1.7v21.5l-4.1,4.2
		c-15.3-14.5-35.9-23.4-58.6-23.4C38.2,974.9,0,1013,0,1060.1c0,47.1,38.2,85.3,85.3,85.3s85.3-38.2,85.3-85.3
		c0-22.7-9-43.3-23.5-58.6l4.2-4.2h21.5c0.6,0,1.3-0.3,1.7-0.8l18-20.2c0.8-0.9,0.7-2.5-0.2-3.3c-0.4-0.4-0.9-0.7-1.5-0.7H173v-17.7
		c0-1.2-1-2.3-2.3-2.3C170.5,952.4,170.3,952.4,170.1,952.4z M168,959.6v15.2c0,1.2,1.3,2.5,2.6,2.5h15.1l-14,15H153v-18.8
		L168,959.6z M85.3,979.3c21.5,0,41,8.4,55.5,22.1l-19.1,19.1c-9.6-8.8-22.4-14.2-36.4-14.2c-29.7,0-53.9,24.1-53.9,53.8
		c0,29.7,24.1,53.8,53.9,53.8s53.9-24.1,53.9-53.8c0-14.1-5.4-26.9-14.2-36.5l19-19c13.7,14.5,22.2,33.9,22.2,55.5
		c0,44.6-36.1,80.8-80.8,80.8s-80.8-36.1-80.8-80.8C4.5,1015.5,40.6,979.3,85.3,979.3z M85.3,1010.7c12.8,0,24.5,4.9,33.2,12.8
		l-17.5,17.5c-4.3-3.5-9.8-5.7-15.7-5.7c-13.6,0-24.7,11.1-24.7,24.7c0,13.6,11.1,24.7,24.7,24.7c13.6,0,24.7-11.1,24.7-24.7
		c0-6-2.2-11.5-5.8-15.8l17.5-17.5c8,8.8,12.9,20.5,12.9,33.3c0,27.3-22.1,49.4-49.4,49.4s-49.4-22.1-49.4-49.4
		C35.9,1032.8,58,1010.7,85.3,1010.7z M85.3,1039.9c4.8,0,9.1,1.7,12.6,4.4l-14.2,14.2c-0.9,0.9-0.8,2.3,0.1,3.2
		c0.9,0.9,2.3,0.8,3.2,0l14.2-14.2c2.8,3.5,4.4,7.8,4.4,12.6c0,11.2-9,20.2-20.2,20.2c-11.2,0-20.2-9-20.2-20.2
		C65.1,1048.9,74.1,1039.9,85.3,1039.9z"/>
</g>
</svg>
