<?xml version="1.0" encoding="utf-8"?>
<!-- Generator: Adobe Illustrator 19.0.0, SVG Export Plug-In . SVG Version: 6.00 Build 0)  -->
<svg version="1.1" id="Layer_1" xmlns="http://www.w3.org/2000/svg" xmlns:xlink="http://www.w3.org/1999/xlink" x="0px" y="0px"
	 viewBox="0 0 193 139" style="enable-background:new 0 0 193 139;" xml:space="preserve">
<style type="text/css">
	.st0{display:none;}
	.st1{display:inline;fill:#010101;}
	.st2{display:inline;}
	.st3{fill:#010101;}
	.st4{fill:none;stroke:#010101;stroke-linecap:round;stroke-linejoin:round;stroke-miterlimit:10;}
	.st5{fill:#010101;stroke:#010101;stroke-linecap:round;stroke-linejoin:round;stroke-miterlimit:10;}
	.st6{display:inline;fill:none;}
	.st7{display:inline;fill:#010101;stroke:#010101;stroke-linecap:round;stroke-linejoin:round;stroke-miterlimit:10;}
	.st8{fill:none;}
</style>
<g class="st0">
	<path class="st1" d="M113.3,32H82.6C66,32,66,15.6,66,15.4V0.1C66-16.5,82.5-17,82.6-17h30.7C129.9-17,130-3.9,130-3.7v19.2
		C130,32.1,113.5,32,113.3,32z M83-13.8c-1,0-15,0.2-15,13.9v15.4C68,16,68.9,30,82.6,30h30.7c0.6,0,13.7-0.8,13.7-14.6V-3.7
		c0-0.4,0-10.3-13.7-10.3H83V-13.8z"/>
	<path class="st1" d="M118.4,118H77.5c-4,0-11.5-2.3-11.5-11.5V50.2c0-4,2.3-12.2,11.5-12.2h40.9c4,0,11.6,2.9,11.6,12.2v56.3
		C130,110.5,127.7,118,118.4,118z M77.5,41c-8.7,0-9.5,8.8-9.5,9.2v56.3c0,8.7,9.1,8.5,9.5,8.5h40.9c8.7,0,8.6-8.2,8.6-8.5V50.2
		c0-8.7-8.2-9.2-8.6-9.2H77.5z"/>
	<path class="st1" d="M48.5,113c-4,0-11.5-2.4-11.5-11.7V50.2c0-9.2,7.5-11.7,11.5-11.7c9.2,0,11.5,7.6,11.5,11.7v51.2
		C60,110.6,52.5,113,48.5,113z M48,41.4c-0.9,0-9,0.3-9,8.8v51.2c0,8.7,8.6,8.8,9,8.8c0.9,0,9-0.3,9-8.8V50.2
		C57,49.3,56.5,41.4,48,41.4z"/>
	<path class="st1" d="M148,113c-4,0-12-2.4-12-11.7V50.2c0-9.2,8-11.7,12-11.7c9.2,0,12,7.6,12,11.7v51.2C160,110.6,152,113,148,113
		z M148,41.4c-0.9,0-9,0.3-9,8.8v51.2c0,8.5,8.1,8.8,9,8.8c0.9,0,9-0.3,9-8.8V50.2C157,49.3,156.5,41.4,148,41.4z"/>
	<path id="XMLID_431_" class="st1" d="M98-14.5c-0.4,0,0-0.3,0-0.7v-19.6c0-0.4-0.4-0.7,0-0.7s0,0.3,0,0.7v19.6
		C98-14.9,98.4-14.5,98-14.5z"/>
	<path class="st1" d="M98-34.1c-2.8,0-5-2.3-5-5c0-2.8,2.3-5,5-5c2.8,0,5,2.3,5,5C103-36.4,100.8-34.1,98-34.1z M98-42.8
		c-2,0-3.6,1.6-3.6,3.6c0,2,1.6,3.6,3.6,3.6c2,0,3.6-1.6,3.6-3.6C101.6-41.2,100-42.8,98-42.8z"/>
	<path id="XMLID_428_" class="st1" d="M118.5,129.5c-0.4,0-0.5-0.3-0.5-0.7v-12.1c0-0.4,0.1-0.7,0.5-0.7s0.5,0.3,0.5,0.7v12.1
		C119,129.2,118.9,129.5,118.5,129.5z"/>
	<path class="st1" d="M135.4,181.5c-8.8,0-15.7-11.9-15.7-27.1c0-15.2,6.9-27.1,15.7-27.1c8.8,0,15.7,11.9,15.7,27.1
		C151.1,169.6,144.2,181.5,135.4,181.5z M135.4,130.2c-7,0-12.9,11.1-12.9,24.2c0,13.1,5.9,24.2,12.9,24.2c7,0,12.9-11.1,12.9-24.2
		C148.3,141.3,142.4,130.2,135.4,130.2z"/>
	<ellipse id="XMLID_425_" class="st1" cx="135.4" cy="154.4" rx="4.2" ry="7.6"/>
	<path class="st1" d="M74.3,181.5c-8.8,0-15.7-11.9-15.7-27.1c0-15.2,6.9-27.1,15.7-27.1s15.7,11.9,15.7,27.1
		C90.1,169.6,83.2,181.5,74.3,181.5z M74.3,130.2c-7,0-12.9,11.1-12.9,24.2c0,13.1,5.9,24.2,12.9,24.2c7,0,12.9-11.1,12.9-24.2
		C87.2,141.3,81.3,130.2,74.3,130.2z"/>
	<ellipse id="XMLID_422_" class="st1" cx="74.3" cy="154.4" rx="4.2" ry="7.6"/>
	<path id="XMLID_421_" class="st1" d="M74.5,151.4c-0.4,0-0.5-0.3-0.5-0.7v-33.9c0-0.4,0.1-0.7,0.5-0.7s0.5,0.3,0.5,0.7v33.9
		C75,151.1,74.9,151.4,74.5,151.4z"/>
	<g class="st2">
		<path class="st3" d="M74.3,181H60c-8.8,0-15.7-11.8-15.7-27s6.9-27,15.7-27h14.3c0.8,0,1.4,0.8,1.4,1.6c0,0.8-0.6,1.5-1.4,1.5
			c-7,0-12.9,11.1-12.9,24.3c0,13.1,5.9,24.2,12.9,24.2c0.8,0,1.4,0.4,1.4,1.2S75.1,181,74.3,181z M60,130c-7,0-12.9,11.4-12.9,24.5
			S53.1,179,60,179h7.1c-5.1-5-8.6-13.8-8.6-24.5S62,134,67.2,130H60z"/>
		<path id="XMLID_418_" class="st3" d="M74.4,181L74.4,181c-0.8,0-1.5-0.4-1.5-1.2c0-0.8,0.6-1.3,1.4-1.3s1.5,0.4,1.5,1.2
			S75.2,181,74.4,181z"/>
	</g>
	<g class="st2">
		<path class="st3" d="M135.4,181h-14.3c-8.8,0-15.7-11.8-15.7-27s6.9-27,15.7-27h14.3c0.8,0,1.4,0.8,1.4,1.6c0,0.8-0.6,1.5-1.4,1.5
			c-7,0-12.9,11.1-12.9,24.3c0,13.1,5.9,24.2,12.9,24.2c0.8,0,1.4,0.4,1.4,1.2S136.2,181,135.4,181z M121.1,130
			c-7,0-12.9,11.4-12.9,24.5s5.9,24.5,12.9,24.5h7.1c-5.1-5-8.6-13.8-8.6-24.5s3.4-20.5,8.6-24.5H121.1z"/>
		<path id="XMLID_415_" class="st3" d="M135.4,181L135.4,181c-0.8,0-1.5-0.4-1.5-1.2c0-0.8,0.6-1.3,1.4-1.3s1.5,0.4,1.5,1.2
			S136.2,181,135.4,181z"/>
	</g>
</g>
<g class="st0">
	<path id="XMLID_414_" class="st1" d="M34,151.6c0,1.3-0.2,2.3-1,2.3l0,0c-0.8,0-1-1-1-2.3V-11.2c0-1.2,0.2-2.3,1-2.3l0,0
		c0.8,0,1,1,1,2.3V151.6z"/>
	<path id="XMLID_413_" class="st1" d="M48.3-8c-1.4,0.2-2.8,0.5-4.2,0.9c-0.5-1.4-1-2.9-1.5-4.3c-0.5,1.7-1,3.4-1.5,5.1
		c-1.4,0.4-2.8,0.9-4.2,1.4c1.1,0.5,2.2,1,3.3,1.6c-0.5,1.6-0.9,3.2-1.4,4.8c1.3-1.2,2.5-2.4,3.8-3.5c1.3,0.4,2.5,0.9,3.8,1.5
		c-0.5-1.4-0.9-2.7-1.4-4C46.1-5.7,47.2-6.9,48.3-8z"/>
	<path id="XMLID_412_" class="st1" d="M93.3-3.5c-1.4-0.3-2.8-0.7-4.1-1c-0.5-1.7-1-3.4-1.5-5.1c-0.5,1.5-1,2.9-1.5,4.4
		c-1.4-0.3-2.8-0.6-4.2-0.9c1.1,1.1,2.2,2.3,3.3,3.4c-0.5,1.3-0.9,2.7-1.4,4c1.3-0.5,2.5-1,3.8-1.5c1.3,1.1,2.5,2.2,3.8,3.2
		C91,1.5,90.5,0,90-1.6C91.1-2.2,92.2-2.9,93.3-3.5z"/>
	<path id="XMLID_411_" class="st1" d="M48.1,8.4c-1.4,0.2-2.8,0.5-4.2,0.9c-0.5-1.4-1-2.9-1.5-4.3c-0.5,1.7-1,3.4-1.5,5.2
		c-1.4,0.4-2.8,0.9-4.2,1.4c1.1,0.5,2.2,1,3.3,1.6c-0.5,1.6-0.9,3.2-1.4,4.8c1.3-1.2,2.5-2.4,3.8-3.5c1.3,0.4,2.5,0.9,3.8,1.4
		c-0.5-1.3-0.9-2.7-1.4-4C45.9,10.6,47,9.5,48.1,8.4z"/>
	<path id="XMLID_410_" class="st1" d="M93.5,12.8c-1.4-0.3-2.8-0.7-4.1-1c-0.5-1.7-1-3.4-1.5-5.1c-0.5,1.5-1,2.9-1.5,4.4
		c-1.4-0.3-2.8-0.6-4.2-0.9c1.1,1.1,2.2,2.3,3.3,3.4c-0.5,1.3-0.9,2.7-1.4,4c1.3-0.5,2.5-1,3.8-1.5c1.3,1.1,2.5,2.2,3.8,3.2
		c-0.5-1.6-0.9-3.1-1.4-4.7C91.3,14.1,92.4,13.5,93.5,12.8z"/>
	<path class="st1" d="M138.1,32.8c-13.3,0-26.7-3.3-39.6-6.5l-1.4-0.4c-0.6-0.2-1.1-0.7-1.1-1.4V8.2c0-0.4,0.2-0.9,0.5-1.1
		c0.3-0.3,0.8-0.4,1.2-0.3l1.4,0.4c12.8,3.2,26,6.4,38.9,6.4c9.6,0,18.2-1.8,26.3-5.5c0.4-0.2,0.7-0.2,1.2,0.1
		C166,8.5,166,9,166,9.5v16.3c0,0.6-0.1,1.1-0.6,1.3C156.9,30.9,148.1,32.8,138.1,32.8z M98.8,24l0.4-0.2
		c12.8,3.2,25.7,6.3,38.6,6.3c9.3,0,18.2-1.8,25.2-5.2V11.7c-7,3.3-16.4,4.8-25.6,4.8c-13.1,0-25.4-3.3-39.4-6.4V24H98.8z"/>
	<path class="st1" d="M138.1,80.2c-13.3,0-26.7-3.3-39.6-6.5c-12.8-3.2-26-6.4-38.9-6.4c-9.6,0-18.2,1.8-26.3,5.5
		c-0.4,0.2-0.6,0.2-1-0.1c-0.4-0.3-0.3-0.7-0.3-1.2V39.8c0-0.6,0-1.1,0.5-1.3c8.5-3.8,17.3-5.7,27.3-5.7c13.3,0,26.6,3.3,39.5,6.5
		c12.8,3.2,26,6.4,38.9,6.4c9.6,0,18.2-1.8,26.3-5.5c0.4-0.2,0.7-0.2,1.2,0.1c0.4,0.3,0.4,0.7,0.4,1.2v31.6c0,0.6-0.1,1.1-0.6,1.3
		C156.9,78.4,148.1,80.2,138.1,80.2z M59.5,64.4c13.3,0,26.7,3.3,39.6,6.5c12.8,3.2,25.7,6.4,38.7,6.4c9.3,0,18.2-1.7,25.2-5.1V43.8
		c-7,3.3-15.9,4.8-25.2,4.8c-13.3,0-26.5-3.3-39.5-6.5c-12.8-3.2-26-6.4-38.9-6.4c-9.3,0-17.4,1.7-25.4,5.1v28.5
		C42,66,50.3,64.4,59.5,64.4z"/>
	<path class="st1" d="M97.4,26c-0.1,0-0.2,0-0.3,0c-11.5-2.8-24.6-6.1-37.5-6.1c-9.6,0-18.2,1.8-26.3,5.5c-0.4,0.2-0.6,0.2-1-0.1
		C31.9,24.9,32,24.5,32,24v-35c0-0.6,0-1.1,0.5-1.3c8.5-3.8,17.3-5.7,27.3-5.7c12.3,0,23.5,2.7,37.7,6.2c0.6,0.2,0.6,0.7,0.6,1.4v35
		c0,0.4,0.2,0.9-0.1,1.1C97.6,25.9,97.7,26,97.4,26z M59.5,17C71.3,17,83,19.4,96,22.7v-32c-13-3.3-24.8-5.8-36.5-5.8
		c-9.3,0-17.5,1.7-25.5,5.1v31.9C42,18.6,50.3,17,59.5,17z"/>
	<path class="st1" d="M138.1,80.2c-13.3,0-26.7-3.3-39.6-6.5c-12.8-3.2-26-6.4-38.9-6.4c-9.6,0-18.2,1.8-26.3,5.5
		c-0.4,0.2-0.6,0.2-1-0.1c-0.4-0.3-0.3-0.7-0.3-1.2V-11c0-0.6,0-1.1,0.5-1.3c8.5-3.8,17.3-5.7,27.3-5.7c13.3,0,26.6,3.3,39.5,6.5
		c12.8,3.2,26,6.4,38.9,6.4c9.6,0,18.2-1.8,26.3-5.5c0.4-0.2,0.7-0.2,1.2,0.1c0.4,0.3,0.4,0.7,0.4,1.2v82.4c0,0.6-0.1,1.1-0.6,1.3
		C156.9,78.4,148.1,80.2,138.1,80.2z M59.5,64.4c13.3,0,26.7,3.3,39.6,6.5c12.8,3.2,25.7,6.4,38.7,6.4c9.3,0,18.2-1.7,25.2-5.1V-7
		c-7,3.3-15.9,4.8-25.2,4.8c-13.3,0-26.5-3.3-39.5-6.5c-12.8-3.2-26-6.4-38.9-6.4c-9.3,0-17.4,1.7-25.4,5.1v79.3
		C42,66,50.3,64.4,59.5,64.4z"/>
	<path id="XMLID_401_" class="st1" d="M71.3-8.2c-1.4-0.2-2.8-0.3-4.1-0.4c-0.5-1.6-1-3.2-1.5-4.8c-0.5,1.5-1,3.1-1.5,4.6
		C62.8-8.9,61.4-9,60-9c1.1,0.9,2.2,1.9,3.3,2.8c-0.5,1.4-0.9,2.9-1.4,4.3c1.3-0.7,2.5-1.5,3.8-2.2c1.3,0.9,2.5,1.8,3.8,2.7
		c-0.5-1.5-0.9-3-1.4-4.5C69.2-6.6,70.3-7.4,71.3-8.2z"/>
	<path id="XMLID_400_" class="st1" d="M71.5,8.1c-1.4-0.2-2.8-0.3-4.2-0.4c-0.5-1.6-1-3.2-1.5-4.8c-0.5,1.5-1,3.1-1.5,4.6
		c-1.4-0.1-2.8-0.1-4.2-0.1c1.1,0.9,2.2,1.9,3.3,2.8c-0.5,1.4-0.9,2.9-1.4,4.3c1.3-0.7,2.5-1.5,3.8-2.2c1.3,0.9,2.5,1.8,3.8,2.7
		c-0.5-1.5-0.9-3-1.4-4.5C69.3,9.7,70.4,8.9,71.5,8.1z"/>
	<g class="st2">
		<path class="st3" d="M138.1,16.5c-13.3,0-26.7-3.3-39.6-6.5l-1.4-0.4C96.4,9.5,96,8.9,96,8.2v-18.7c0-0.4,0.2-0.9,0.5-1.1
			c0.3-0.3,0.8-0.4,1.2-0.3l1.4,0.4c12.8,3.2,26,6.4,38.9,6.4c9.6,0,18.2-1.8,26.3-5.5c0.4-0.2,0.7-0.2,1.2,0.1
			c0.4,0.3,0.4,0.7,0.4,1.2V9.5c0,0.6-0.1,1.1-0.6,1.3C156.9,14.6,148.1,16.5,138.1,16.5z M98.8,7l0.4,0.1
			c12.8,3.2,25.7,6.5,38.7,6.5c9.3,0,18.2-1.6,25.2-5.1V-7c-7,3.3-16.4,4.8-25.6,4.8C124.3-2.2,112-5.5,98-8.6V7H98.8z"/>
	</g>
	<path class="st1" d="M138.1,80.2c-13.3,0-26.7-3.3-39.6-6.5c-12.8-3.2-26-6.4-38.9-6.4c-9.6,0-18.2,1.8-26.3,5.5
		c-0.4,0.2-0.6,0.2-1-0.1c-0.4-0.3-0.3-0.7-0.3-1.2V56.1c0-0.6,0-1.1,0.5-1.3c8.5-3.8,17.3-5.7,27.3-5.7c13.3,0,26.6,3.3,39.5,6.5
		c12.8,3.2,26,6.4,38.9,6.4c9.6,0,18.2-1.8,26.3-5.5c0.4-0.2,0.7-0.2,1.2,0.1c0.4,0.3,0.4,0.7,0.4,1.2v15.3c0,0.6-0.1,1.1-0.6,1.3
		C156.9,78.4,148.1,80.2,138.1,80.2z M59.5,64.4c13.3,0,26.7,3.3,39.6,6.5c12.8,3.2,25.7,6.4,38.7,6.4c9.3,0,18.2-1.7,25.2-5.1V60.1
		c-7,3.3-15.9,4.8-25.2,4.8c-13.3,0-26.5-3.3-39.5-6.5c-12.8-3.2-26-6.4-38.9-6.4C50.2,52,42,53.6,34,57v12.2
		C42,66,50.3,64.4,59.5,64.4z"/>
</g>
<g class="st0">
	<g class="st2">
		<path class="st3" d="M123,115H72.9c-0.8,0-0.9-0.4-0.9-1.2V18.5c0-25.6,14.9-51.6,26-51.6s26,26,26,51.6v95.3
			C124,114.6,123.8,115,123,115z M74.3,113H122V18.5c0-24.6-15.3-48.7-24-48.7S74-6.1,74,18.5v93.8L74.3,113z"/>
	</g>
	<g class="st2">
		<path class="st3" d="M123,165h-15c-0.8,0-1-0.3-1-1.1v-10c0-0.8,0.2-1.9,1-1.9h10c0.5,0,1,0.5,1.3,1l5,10.1
			c0.2,0.4,0.2,0.9-0.1,1.3C124,164.9,123.5,165,123,165z M110,162h10.7l-3.6-7H110V162z"/>
	</g>
	<g class="st2">
		<path class="st3" d="M123,145.3c-0.3,0-0.5-0.1-0.7-0.3c-0.3-0.3-0.3-0.7-0.3-1.1v-10c0-0.7,0.3-1.3,1-1.4l65.1-10
			c0.4-0.1,1,0.1,1.3,0.3c0.3,0.3,0.6,0.7,0.6,1.1v10c0,0.7-0.7,1.3-1.4,1.4l-65.3,10C123.3,145.3,123.1,145.3,123,145.3z M124,135
			v7.1l63-9.6v-7.1L124,135z"/>
	</g>
	<g class="st2">
		<path class="st3" d="M72.9,135.2c-0.1,0-0.1,0-0.2,0l-65.3-10c-0.7-0.1-1.4-0.7-1.4-1.4v-20.1c0-0.4,0.3-0.8,0.6-1.1l50-44.9
			L71.5,18c0.2-0.7,0.8-1,1.4-0.9c0.7,0.1,1,0.7,1,1.4V113h3.9c0.6,0,1.1,0,1.3,0.6c0.2,0.5-0.1,1-0.5,1.4c0,0-4.8,4.6-4.8,13.9v5
			c0,0.4,0,0.8-0.3,1.1C73.4,135.1,73.2,135.2,72.9,135.2z M9,122.6l63,9.6v-3.3c0-6.5,1.5-10.8,3.1-13.8h-2.2
			c-0.8,0-0.9-0.4-0.9-1.2V26.4L59.5,59.1c-0.1,0.2-0.4,0.4-0.6,0.6L9,104.4V122.6z"/>
	</g>
	<g class="st2">
		<path class="st3" d="M108,170H87.9c-0.5,0-0.9,0-1.2-0.4c-0.3-0.4-0.3-0.8-0.2-1.2l5-15c0.1-0.2,0.2-0.4,0.3-0.5l5-5
			c0.5-0.5,1.5-0.5,2,0l5,5c0.2,0.2,0.3,0.4,0.3,0.6l5,15c0.1,0.4,0.1,0.7-0.2,1.1C108.9,170,108.5,170,108,170z M89.9,168H106
			l-4.3-13.1L98,151l-3.8,4L89.9,168z"/>
	</g>
	<g class="st2">
		<path class="st3" d="M87.9,165h-15c-0.5,0-1-0.1-1.2-0.5c-0.3-0.4-0.3-0.9-0.1-1.3l5-10.2c0.2-0.5,0.7-1,1.3-1h10
			c0.8,0,1.1,1.1,1.1,1.9v10C89,164.7,88.7,165,87.9,165z M75.2,162H86v-7h-7.2L75.2,162z"/>
	</g>
	<g class="st2">
		<path class="st3" d="M108,0H87.9c-3.2,0-5.7-2.8-5.7-6c0-3.2,2.6-6,5.7-6H108c3.2,0,5.7,2.8,5.7,6C113.7-2.8,111.2,0,108,0z
			 M87.9-11c-2.4,0-4.3,2.1-4.3,4.5c0,2.4,1.9,4.5,4.3,4.5H108c2.4,0,4.3-2.1,4.3-4.5c0-2.4-1.9-4.5-4.3-4.5H87.9z"/>
	</g>
	<g class="st2">
		<path class="st3" d="M72.9,145.3c-0.1,0-0.1,0-0.2,0l-65.3-10c-0.7-0.1-1.4-0.7-1.4-1.4v-10c0-0.4,0.3-0.8,0.6-1.1
			c0.3-0.3,0.8-0.4,1.2-0.3l65,10c0.7,0.1,1.1,0.7,1.1,1.4v10c0,0.4,0,0.8-0.3,1.1C73.4,145.2,73.2,145.3,72.9,145.3z M9.2,133
			l62.8,9.2V135l-63-9.6v7.5H9.2z"/>
	</g>
	<g class="st2">
		<path class="st3" d="M93,155H72.9c-0.8,0-0.9-0.3-0.9-1.1v-25.1c0-10.5,5-15.5,5.2-15.7c0.3-0.3,0.4-0.1,0.8-0.1H98
			c0.8,0,1.4,0.3,1.4,1.1c0,0.8-0.8,1.3-1.6,1.3c-2,0-3.8,1.4-3.8,3.4v25.1c0,2,1.8,3.6,3.8,3.6c0.6,0,1.2,0.3,1.4,0.9
			c0.2,0.5,0.2,1.2-0.3,1.6l-5,4.9C93.7,155,93.3,155,93,155z M74.3,152h18l3-2.6c-2.1-1-3.4-3-3.4-5.6v-25.1c0-1.3-0.1-2.8,0.6-3.8
			h-14c-1.1,2-4.6,6.1-4.6,13.8V152H74.3z"/>
	</g>
	<g class="st2">
		<path class="st3" d="M123,155H103c-0.4,0-0.7,0-1-0.3l-5-4.9c-0.4-0.4-0.5-1-0.3-1.5c0.2-0.5,1-0.9,1.5-0.9c2,0,3.8-1.6,3.8-3.6
			v-25.1c0-2-1.8-3.6-3.8-3.6c-0.8,0-1.5-0.3-1.5-1.1c0-0.8,0.5-1.1,1.3-1.1H118c0.4,0,0.5-0.2,0.8,0.1c0.2,0.2,5.2,5.2,5.2,15.7
			v25.1C124,154.7,123.8,155,123,155z M103.6,152H122v-23.2c0-7.7-3.5-11.8-4.6-13.8h-14c0.7,1,0.7,2.5,0.7,3.8v25.1
			c0,2.5-1.3,4.5-3.4,5.6L103.6,152z"/>
	</g>
	<g class="st2">
		<path class="st3" d="M123,135.2c-0.3,0-0.5-0.1-0.7-0.3c-0.3-0.3-0.3-0.7-0.3-1.1v-5c0-9.3-4.7-14-4.8-14
			c-0.4-0.4-0.6-0.7-0.4-1.2c0.2-0.5,0.6-0.6,1.2-0.6h4V18.5c0-0.7,0.3-1.3,1-1.4c0.7-0.1,1.3,0.3,1.5,0.9l14.9,39.8l50,44.9
			c0.3,0.3,0.6,0.7,0.6,1.1v20.1c0,0.7-0.7,1.3-1.4,1.4l-65.3,10C123.3,135.2,123.1,135.2,123,135.2z M121,115.2c1,2.5,3,7.1,3,13.6
			v3.3l63-9.6v-18.2l-49.8-44.7c-0.2-0.2-0.6-0.3-0.7-0.6L124,26.4v87.3c0,0.8-0.2,1.2-1,1.2h-2V115.2z"/>
	</g>
</g>
<g class="st0">
	<g class="st2">
		<circle id="XMLID_373_" class="st3" cx="98" cy="68.6" r="84.6"/>
		<path class="st3" d="M98,154.6c-47.4,0-86-38.6-86-86c0-47.4,38.6-86,86-86c47.4,0,86,38.6,86,86S145.4,154.6,98,154.6z M98-14.5
			c-45.8,0-83.1,37.3-83.1,83.1c0,45.8,37.3,83.1,83.1,83.1c45.8,0,83.1-37.3,83.1-83.1C181.1,22.8,143.8-14.5,98-14.5z"/>
	</g>
	<path class="st1" d="M98,133.9c-1.1,0-108.2-0.1-108.2-12c0-2.4,3.2-4.2,10.8-5.8c12-2.6,34.5-4.7,61.7-5.6
		c11.4-0.4,23.4-0.6,35.7-0.6c1.1,0,108.2,0.1,108.2,12C206.1,133.8,99.1,133.9,98,133.9z M98,112.7c-12.2,0-24.2,0.2-35.6,0.6
		c-27,0.9-49.3,3-61.2,5.6c-7.8,1.7-8.5,3.1-8.5,3.1C-5.6,125.6,33,131,98,131s103.5-5.5,105.3-9.3C201.5,118.2,163,112.7,98,112.7z
		"/>
	<g class="st2">
		<path id="XMLID_368_" class="st3" d="M23.6,129.8c0,3.5-2.8,6.3-6.3,6.3c-3.5,0-6.3-2.8-6.3-6.3c0-3.5,2.8-6.3,6.3-6.3
			C20.8,123.5,23.6,126.4,23.6,129.8z"/>
		<path class="st3" d="M17.3,136.9c-3.9,0-7-3.2-7-7c0-3.9,3.2-7,7-7c3.9,0,7,3.2,7,7C24.3,133.7,21.2,136.9,17.3,136.9z
			 M17.3,124.2c-3.1,0-5.6,2.5-5.6,5.6c0,3.1,2.5,5.6,5.6,5.6c3.1,0,5.6-2.5,5.6-5.6C22.9,126.8,20.4,124.2,17.3,124.2z"/>
	</g>
	<g class="st2">
		<circle id="XMLID_365_" class="st3" cx="126.8" cy="132.7" r="9.2"/>
		<path class="st3" d="M126.8,142.6c-5.4,0-9.9-4.4-9.9-9.9c0-5.4,4.4-9.9,9.9-9.9s9.9,4.4,9.9,9.9
			C136.7,138.1,132.3,142.6,126.8,142.6z M126.8,124.2c-4.7,0-8.4,3.8-8.4,8.4c0,4.7,3.8,8.4,8.4,8.4s8.4-3.8,8.4-8.4
			C135.3,128,131.5,124.2,126.8,124.2z"/>
	</g>
	<g class="st2">
		<path id="XMLID_362_" class="st3" d="M185,130c0,3.6-2.9,6.5-6.5,6.5c-3.6,0-6.5-2.9-6.5-6.5c0-3.6,2.9-6.5,6.5-6.5
			C182.1,123.5,185,126.4,185,130z"/>
		<path class="st3" d="M178.5,138c-4.4,0-7.9-3.6-7.9-7.9c0-4.4,3.6-7.9,7.9-7.9s7.9,3.6,7.9,7.9C186.4,134.4,182.8,138,178.5,138z
			 M178.5,125c-2.8,0-5.1,2.3-5.1,5.1s2.3,5.1,5.1,5.1c2.8,0,5.1-2.3,5.1-5.1S181.3,125,178.5,125z"/>
	</g>
	<g class="st2">
		<path id="XMLID_359_" class="st3" d="M163.4,122.2c12-14.6,19.2-33.3,19.2-53.6c0-46.7-37.9-84.6-84.6-84.6
			c-46.7,0-84.5,37.8-84.5,84.6c0,20.3,7.2,39,19.2,53.6"/>
		<path id="XMLID_358_" class="st3" d="M163.4,123.7c-0.3,0-0.6-0.1-0.9-0.3c-0.6-0.5-0.7-1.4-0.2-2c12.1-14.8,18.8-33.5,18.8-52.7
			c0-45.8-37.3-83.1-83.1-83.1c-45.8,0-83.1,37.3-83.1,83.1c0,19.2,6.7,37.9,18.8,52.7c0.5,0.6,0.4,1.5-0.2,2
			c-0.6,0.5-1.5,0.4-2-0.2C18.9,107.8,12,88.5,12,68.6c0-47.4,38.6-86,86-86c47.4,0,86,38.6,86,86c0,19.8-6.9,39.2-19.5,54.5
			C164.2,123.5,163.8,123.7,163.4,123.7z"/>
	</g>
	<g class="st2">
		<circle id="XMLID_357_" class="st3" cx="64.3" cy="132" r="14"/>
		<path class="st3" d="M64.3,146.7c-8.1,0-14.7-6.6-14.7-14.7c0-8.1,6.6-14.7,14.7-14.7S79,123.9,79,132
			C79,140.1,72.4,146.7,64.3,146.7z M64.3,118.8C57,118.8,51,124.7,51,132c0,7.3,5.9,13.3,13.3,13.3c7.3,0,13.3-5.9,13.3-13.3
			C77.5,124.7,71.6,118.8,64.3,118.8z"/>
	</g>
</g>
<g class="st0">
	<g class="st2">
		<line id="XMLID_354_" class="st4" x1="-10" y1="123.5" x2="208" y2="123.5"/>
		<path id="XMLID_353_" class="st5" d="M-10.9,123.4c6.7,0,28.5-15.7,33-15.7c4.5,0,13.2-3.9,15.4-7.9c2.2-3.9,16.9-7.9,19.2-11.8
			c2.2-3.9,15.1,3.9,17.4,3.9c2.2,0,15.6,7.9,17.9,7.9c2.2,0,16.6-7.9,18.8-7.9c2.2,0,11.2,3.9,15.7,3.9s14.9,0,17.1,3.9
			s19.7-7.9,24.1,7.9c4.4,15.7,23.6,7.9,25.8,11.8c2.2,3.9,14.7,3.9,14.7,3.9"/>
		<path id="XMLID_352_" class="st5" d="M-11.5,123.4c13.3,0,24.3-31.5,33.2-31.5c8.9,0,9.9-7.9,14.4-15.7
			c4.4-7.9,11.8-15.7,16.2-23.6c4.4-7.9,14.2,7.9,18.7,7.9c4.4,0,14.5,15.7,18.9,15.7c4.5,0,14.9-15.7,19.4-15.7
			c4.4,0,9,7.9,17.9,7.9s14.1,0,18.6,7.9c4.4,7.9,13.2-15.7,22.1,15.7c8.9,31.5,18.5,15.7,22.9,23.6c4.4,7.9,17.4,7.9,17.4,7.9"/>
		<path id="XMLID_351_" class="st5" d="M-12.1,123.4c20,0,20-47.2,33.4-47.2c13.4,0,6.7-11.8,13.4-23.6c6.7-11.8,6.7-23.6,13.3-35.4
			C54.6,5.4,61.3,29,67.9,29c6.7,0,13.3,23.6,20,23.6c6.7,0,13.4-23.6,20-23.6c6.7,0,6.7,11.8,20,11.8s13.3,0,20,11.8
			c6.7,11.8,6.7-23.6,20,23.6c13.3,47.2,13.3,23.6,20,35.4c6.7,11.8,20,11.8,20,11.8"/>
	</g>
	<rect id="XMLID_350_" x="56" y="-63" class="st6" width="144" height="49"/>
	
		<text id="XMLID_349_" transform="matrix(1 0 0 1 55.2402 -38.5083)" class="st1" style="font-family:'MyriadPro-Regular'; font-size:34.4237px;">faire qqch</text>
</g>
<g class="st0">
	<g class="st2">
		<path class="st3" d="M98,164.5c-51.5,0-93.4-43-93.4-95.9c0-52.8,41.9-95.8,93.4-95.8c0.3,0,0.7,0,1,0l0.6,0
			c13.3,1.9,24.4,27.4,28.5,65c36.6,4.2,61.4,15.6,63.3,29l0,0.7c0,0.4,0,0.7,0,1.1C191.4,121.5,149.5,164.5,98,164.5z M98-24.3
			c-49.9,0-90.5,41.7-90.5,93c0,51.3,40.6,93,90.5,93c49.9,0,90.5-41.7,90.5-93c0-0.3,0-0.6,0-1l0-0.5
			c-1.7-11.9-26.6-22.7-61.9-26.6c-0.7-0.1-1.2-0.6-1.3-1.3C121.5,3,111-22.6,99.3-24.3l-0.4,0C98.6-24.3,98.3-24.3,98-24.3z"/>
	</g>
	<g class="st2">
		<path id="XMLID_346_" class="st3" d="M69.3,99.5c-0.7,0-1.3-0.5-1.4-1.3c-1-9.6-1.5-19.5-1.5-29.6c0-2.3,0-4.6,0.1-6.9l0-1.3
			c0.1-2.3,0.1-4.6,0.3-6.9c0.1-2.6,0.3-4.9,0.5-7.3C70.7,2.3,83-27.2,98-27.2c14.1,0,25.9,26,30.1,66.3c0.1,0.8-0.5,1.5-1.3,1.6
			c-0.8,0.1-1.5-0.5-1.6-1.3C121.3,1.9,110.1-24.3,98-24.3c-13,0-24.7,29.7-27.9,70.7c-0.2,2.5-0.3,4.8-0.5,7.1
			c-0.1,2.4-0.2,4.7-0.3,7l0,1.3c-0.1,2.3-0.1,4.6-0.1,6.9c0,9.9,0.5,19.8,1.5,29.3c0.1,0.8-0.5,1.5-1.3,1.6
			C69.4,99.5,69.4,99.5,69.3,99.5z"/>
	</g>
	<path id="XMLID_345_" class="st7" d="M126.6,39.4"/>
	<g class="st2">
		<path id="XMLID_344_" class="st3" d="M98,101.2c-9.9,0-19.5-0.5-28.8-1.5c-0.5-0.1-1-0.4-1.2-0.9c-0.2-0.5-0.1-1.1,0.3-1.5
			l15.4-15.8c0.6-0.6,1.5-0.6,2,0c0.6,0.6,0.6,1.5,0,2L72.4,97.1c10.4,1,21.5,1.4,32.3,1.1l1.3,0c2.2-0.1,4.4-0.1,6.6-0.3
			c0,0,0.3,0,0.3,0c2.2-0.1,4.5-0.3,6.7-0.5c40-3.3,69-15.3,69-28.7c0-12.5-25.5-24-62-28c-0.8-0.1-1.4-0.8-1.3-1.6
			c0.1-0.8,0.8-1.4,1.6-1.3c38.6,4.3,64.6,16.7,64.6,30.9c0,15.1-29.4,28.1-71.4,31.5c-2.4,0.2-4.7,0.4-7,0.5c0,0-0.3,0-0.3,0
			c-2.1,0.1-4.3,0.2-6.6,0.3l-1.3,0C102.5,101.1,100.3,101.2,98,101.2z"/>
	</g>
	<g class="st2">
		<g>
			<path class="st3" d="M96.4,83.7c-4.2,0-8.4-0.2-12.5-0.7c-0.3,0-0.6-0.3-0.6-0.6c-0.4-4.2-0.7-8.5-0.7-12.8c0-1,0-2,0-3
				c0-0.2,0-0.4,0-0.6c0-1,0.1-2,0.1-3c0-1.1,0.1-2.1,0.2-3.1c1.3-16.5,5.8-33,13-33c23.2,0.1,42.2,20.2,42.2,44.4
				c0,0.2,0,0.7,0,0.7h0c0,0,0,0,0,0.2c-0.5,3.5-15.2,9.8-32.3,11.2c-0.1,0-0.1-0.1-0.2-0.1c-0.9,0.1-1.9,0.1-2.9,0.2
				c-0.9,0.1-1.7,0.1-2.5,0.1l-1,0C98.4,83.7,97.4,83.7,96.4,83.7z M84.7,81.6c4.7,0.5,9.8,0.7,14.6,0.6l1,0c0.8,0,1.6-0.1,2.4-0.1
				c1.1-0.1,2-0.1,3-0.2c0,0,0.1,0,0.1,0c18.1-1.5,30.7-8.2,31-10.1l0-0.3c0-0.2,0-0.3,0-0.5c0-23.4-18.3-42.5-40.7-42.6
				c-5.3,0-10.2,13.3-11.6,31.6C84.4,61,84.3,62,84.3,63c-0.1,1.1-0.1,2.1-0.1,3c0,0.2,0,0.4,0,0.5c0,1,0,2,0,3
				C84.1,73.6,84.3,77.7,84.7,81.6z"/>
		</g>
	</g>
</g>
<g class="st0">
	<g class="st2">
		<path class="st3" d="M120.9-7.4C120.9-7.4,120.9-7.4,120.9-7.4l-46.1-6c-0.4,0-0.9-0.4-0.9-0.7V-24c0-0.2,0.3-0.4,0.5-0.5
			c0.2-0.1,0.5-0.2,0.7-0.2l45.9,6c0.4,0,0.9,0.4,0.9,0.7v9.9c0,0.2-0.3,0.4-0.4,0.5C121.5-7.5,121.1-7.4,120.9-7.4z M76-14.8L120-9
			v-8.5l-44-5.8V-14.8z"/>
	</g>
	<g class="st2">
		<path class="st3" d="M120.9,14.3C120.9,14.3,120.9,14.3,120.9,14.3L74.9,8.7C74.5,8.7,74,8.4,74,8v-9.9c0-0.2,0.3-0.4,0.5-0.5
			c0.2-0.1,0.5-0.2,0.7-0.2L121.1,3c0.4,0,0.9,0.3,0.9,0.7v9.9c0,0.2-0.3,0.4-0.4,0.5C121.5,14.2,121.1,14.3,120.9,14.3z M76,7.4
			l44,5.4V4.3L76-1.1V7.4z"/>
	</g>
	<g class="st2">
		<path class="st3" d="M117.5,36.5C117.5,36.5,117.5,36.5,117.5,36.5l-40.7-5.4c-0.3,0-0.5-0.2-0.6-0.5c-0.9-3.3-1.4-6.7-1.6-10.3
			c0-0.2,0.1-0.4,0.2-0.6c0.2-0.1,0.4-0.2,0.6-0.2l44.8,6c0.2,0,0.4,0.1,0.5,0.3c0.1,0.2,0.2,0.4,0.1,0.5c-0.6,3.3-1.5,6.6-2.7,9.7
			C118.1,36.3,117.8,36.5,117.5,36.5z M77.5,29.7L117,35c1-2.6,1.8-5.4,2.3-8.2l-43.2-5.8C76.3,24.1,76.8,27,77.5,29.7z"/>
	</g>
	<g class="st2">
		<path class="st3" d="M104.3,56.7C104.2,56.7,104.2,56.7,104.3,56.7l-13.9-1.8c-0.2,0-0.3-0.1-0.4-0.2c-3.4-3.8-6-7.4-8.2-11
			c-0.1-0.2-0.1-0.5,0-0.8c0.1-0.2,0.4-0.4,0.7-0.3l29.2,3.7c0.2,0,0.5,0.2,0.6,0.4c0.1,0.2,0.1,0.5-0.1,0.7c-2,3-4.4,5.9-7.3,9.1
			C104.6,56.6,104.5,56.7,104.3,56.7z M90.8,53.5l13.2,1.7c2.4-2.6,4.5-5.2,6.3-7.7l-26.6-3.4C85.6,47.2,87.9,50.3,90.8,53.5z"/>
	</g>
	<g class="st2">
		<path class="st3" d="M115.9,102.4c0,0-0.1,0-0.1,0l-33-4.9c-0.1,0-0.2,0-0.2-0.1c-0.3,0-0.4-0.2-0.5-0.4c-0.1-0.2,0-0.5,0.1-0.7
			c2-2.8,4.4-5.7,7.5-8.9c0.2-0.2,0.4-0.2,0.6-0.2l17.7,2.8c0.2,0,0.3,0.1,0.4,0.2c3.5,3.9,6.1,7.5,8,11c0.1,0.2,0.1,0.5,0,0.8
			C116.4,102.3,116.1,102.4,115.9,102.4z M84.1,96.3l30.5,4.5c-1.8-3-4.1-6-6.9-9.3l-17.1-2.7C88,91.5,85.9,93.9,84.1,96.3z"/>
	</g>
	<g class="st2">
		<path class="st3" d="M120.7,125.1C120.7,125.1,120.7,125.1,120.7,125.1L75,119c-0.4-0.1-0.6-0.4-0.6-0.7c0.2-3.4,0.8-6.7,1.8-9.9
			c0.1-0.3,0.4-0.5,0.8-0.5l43.4,5.8c0.3,0,0.8,0.3,0.9,0.6c0.3,2,0.7,4,0.7,6v4.1c0,0.2-0.4,0.4-0.5,0.5
			C121.3,125.1,120.9,125.1,120.7,125.1z M75.9,117.7l44.1,5.9v-3.3c0-1.7-0.1-3.5-0.4-5.2l-42.3-5.7
			C76.5,112.1,76,114.8,75.9,117.7z"/>
	</g>
	<g class="st2">
		<path class="st3" d="M120.5,147.8c0,0-0.1,0-0.1,0l-45.7-7c-0.3-0.1-0.8-0.4-0.8-0.7v-10c0-0.2,0.2-0.4,0.4-0.5
			c0.2-0.1,0.4-0.2,0.7-0.2l45.8,7.1c0.4,0.1,0.6,0.4,0.6,0.7l-0.2,9.9c0,0.2-0.1,0.4-0.3,0.5C120.9,147.8,120.7,147.8,120.5,147.8z
			 M76,139.5l44,6.8l0.2-8.5L76,130.9V139.5z"/>
	</g>
	<g class="st2">
		<path class="st3" d="M122.3,169.6C122.3,169.6,122.2,169.6,122.3,169.6l-47.5-6.3c-0.4-0.1-0.8-0.4-0.8-0.7v-9.9
			c0-0.2,0.2-0.4,0.4-0.5c0.2-0.1,0.4-0.2,0.6-0.2l46,6.1c0.4,0,0.9,0.4,0.9,0.7v5.8c0,1.4,0.2,2.7,1.1,3.8c0.2,0.2,0.1,0.5-0.1,0.8
			C122.9,169.5,122.6,169.6,122.3,169.6z M76,162l45,6c-0.5-1-1-2.2-1-3.4v-5.2l-44-6V162z"/>
	</g>
	<g class="st2">
		<path class="st3" d="M69,172.6c-4.4,0-8-3.6-8-8v-44.3c0-24.8,14.9-39.2,29.8-53.1C105.6,53.3,119,40.3,119,17v-44.3
			c0-4.4,3.6-8,8-8c4.4,0,8,3.6,8,8V17c0,30.3-17.4,47-33.2,61.9C88.2,91.5,77,102.5,77,120.3v44.3C77,169,73.4,172.6,69,172.6z
			 M127.5-32.4c-2.8,0-5.5,2.3-5.5,5.1V17c0,24.6-14.3,38-29.5,52.2C77.9,82.8,63,96.8,63,120.3v44.3c0,2.8,2.7,5.1,5.5,5.1
			s5.5-2.3,5.5-5.1v-44.3c0-19.1,12.1-30.4,26.2-43.6C115.6,62.3,133,46,133,17v-44.3C133-30.1,130.3-32.4,127.5-32.4z"/>
	</g>
	<g class="st2">
		<g>
			<path class="st3" d="M88.4,72.8c-0.4,0-0.4-0.1-0.7-0.4C73.7,58.8,61,42.6,61,17v-44.3c0-4.4,3.6-8,8-8s8,3.6,8,8V17
				c0,20.8,10.9,33.3,22.3,44.4c0.3,0.3,0.3,0.6,0.3,1c0,0.4-0.2,0.8-0.5,1c-2,2-4.1,3.9-6.2,5.9l-3.4,3.1
				C89.2,72.7,88.8,72.8,88.4,72.8z M68.5-32.4c-2.8,0-5.5,2.3-5.5,5.1V17c0,24,12.1,39.4,25.3,52.4l2.4-2.2
				c1.7-1.6,3.7-3.2,5.3-4.8C84.6,51.1,74,38.3,74,17v-44.3C74-30.1,71.3-32.4,68.5-32.4z"/>
		</g>
		<g>
			<path class="st3" d="M127,172.6c-4.4,0-8-3.6-8-8v-44.3c0-16.4-9.5-26.9-22.3-38.9c-0.3-0.3-0.3-0.6-0.3-1s0.2-0.8,0.5-1
				c0.9-0.9,1.9-1.7,2.8-2.6c2.2-2.1,4.5-4.2,6.8-6.4c0.6-0.5,1.2-0.5,1.7,0c14.2,13.4,26.7,27.4,26.7,50v44.3
				C135,169,131.4,172.6,127,172.6z M99.9,80.4c12.7,12.1,22.1,22.9,22.1,39.9v44.3c0,2.8,2.7,5.1,5.5,5.1c2.8,0,5.5-2.3,5.5-5.1
				v-44.3c0-21-11.9-34.3-25.3-47c-1.9,1.9-4.1,3.7-6,5.5C101.2,79.4,100.4,79.9,99.9,80.4z"/>
		</g>
	</g>
</g>
<g class="st0">
	<g class="st2">
		<g>
			<path class="st3" d="M153.5,95H42.2C32.3,95,30,86.7,30,82.4V37.8C30,27.9,37.8,25,42.2,25h4.3c0.5-2,2.3-5,6.8-5h11.1
				c4.6,0,6.4,3,6.8,5h4.3c2.2,0,4.8-2.6,7.4-5.1c2.9-2.9,6-5.9,9.3-5.9h22.3c3.4,0,6.4,3,9.3,5.9c2.5,2.5,5.2,5.1,7.3,5.1h22.2
				c6.3,0,12.5,6.5,12.5,12.8v44.5C166,92.3,157.8,95,153.5,95z M42.2,28C41.8,28,32,28.3,32,37.8v44.5c0,0.4,0.7,9.6,10.2,9.6
				h111.3c0.4,0,9.5-0.1,9.5-9.6V37.8c0-4.8-4.7-9.8-9.5-9.8h-22.2c-3.4,0-6.4-3-9.4-5.9c-2.5-2.5-5.1-5.1-7.3-5.1H92.3
				c-2.2,0-4.8,2.5-7.3,5.1C82,25,79,28,75.6,28H70c-0.8,0-1.4-0.4-1.4-1.2c0-0.7-0.2-3.8-4.1-3.8H53.3c-4,0-4.1,3.4-4.1,3.8
				c0,0.8-0.6,1.2-1.4,1.2H42.2z"/>
		</g>
		<g>
			<line id="XMLID_317_" class="st8" x1="48" y1="26" x2="70" y2="26"/>
			<path id="XMLID_316_" class="st3" d="M70,28H47.8c-0.8,0-1.4-0.7-1.4-1.5S47,25,47.8,25H70c0.8,0,1.4,0.7,1.4,1.5S70.8,28,70,28z
				"/>
		</g>
		<g>
			<path class="st3" d="M111.8,27H95.1c-1.9,0-3.5-1.6-3.5-3.5s1.6-3.5,3.5-3.5h16.7c1.9,0,3.5,1.6,3.5,3.5S113.7,27,111.8,27z
				 M95.1,22c-1.1,0-2.1,0.4-2.1,1.5s0.9,1.5,2.1,1.5h16.7c1.1,0,2.1-0.4,2.1-1.5s-0.9-1.5-2.1-1.5H95.1z"/>
		</g>
		<g>
			<path class="st3" d="M97.9,88.3c-15.5,0-28.2-12.6-28.2-28.2c0-15.5,12.6-28.2,28.2-28.2c15.6,0,28.2,12.6,28.2,28.2
				C126.1,75.6,113.4,88.3,97.9,88.3z M97.9,34.8c-14,0-25.3,11.4-25.3,25.3c0,14,11.4,25.3,25.3,25.3c14,0,25.3-11.4,25.3-25.3
				C123.2,46.1,111.8,34.8,97.9,34.8z"/>
		</g>
		<g>
			<path class="st3" d="M97.9,80.3c-11.1,0-20.2-9.1-20.2-20.2s9.1-20.2,20.2-20.2c11.1,0,20.2,9.1,20.2,20.2
				C118.1,71.2,109,80.3,97.9,80.3z M97.9,41.3c-10.3,0-18.8,8.4-18.8,18.8c0,10.3,8.4,18.8,18.8,18.8c10.3,0,18.8-8.4,18.8-18.8
				C116.6,49.7,108.2,41.3,97.9,41.3z"/>
		</g>
		<g>
			<path id="XMLID_309_" class="st3" d="M83.9,63.6c-0.4,0-0.7-0.3-0.7-0.7c0-9.6,7.8-17.4,17.4-17.4c0.4,0,0.7,0.3,0.7,0.7
				s-0.3,0.7-0.7,0.7c-8.8,0-16,7.2-16,16C84.7,63.3,84.3,63.6,83.9,63.6z"/>
		</g>
	</g>
	<g class="st2">
		<path class="st3" d="M11.5,100.4C7.5,100.4,0,98,0,88.7V37.5c0-9.2,7.5-11.7,11.5-11.7c9.2,0,11.5,7.6,11.5,11.7v51.2
			C23,98,15.5,100.4,11.5,100.4z M11,28.7c-0.9,0-9,0.3-9,8.8v51.2c0,8.5,8.1,8.8,9,8.8c0.9,0,9-0.3,9-8.8V37.5
			C20,36.6,19.5,28.7,11,28.7z"/>
	</g>
	<g class="st2">
		<path class="st3" d="M184.5,100.1c-4,0-11.5-2.4-11.5-11.7V37.2c0-9.2,7.5-11.7,11.5-11.7c9.2,0,11.5,7.6,11.5,11.7v51.2
			C196,97.7,188.5,100.1,184.5,100.1z M184,28.4c-0.9,0-9,0.3-9,8.8v51.2c0,8.7,8.6,8.8,9,8.8c0.9,0,9-0.3,9-8.8V37.2
			C193,36.3,192.5,28.4,184,28.4z"/>
	</g>
	<path id="XMLID_304_" class="st1" d="M98,8.6c-0.4,0,0-0.3,0-0.7v-19.6c0-0.4-0.4-0.7,0-0.7s0,0.3,0,0.7V7.9
		C98,8.3,98.4,8.6,98,8.6z"/>
	<path class="st1" d="M97.9-11c-2.8,0-5-2.3-5-5c0-2.8,2.3-5,5-5c2.8,0,5,2.3,5,5C102.9-13.3,100.6-11,97.9-11z M97.9-19.7
		c-2,0-3.6,1.6-3.6,3.6s1.6,3.6,3.6,3.6c2,0,3.6-1.6,3.6-3.6C101.5-18,99.8-19.7,97.9-19.7z"/>
	<g class="st2">
		<path class="st3" d="M135.5,158.4c-8.8,0-15.7-11.9-15.7-27.1c0-15.2,6.9-27.1,15.7-27.1c8.8,0,15.7,11.9,15.7,27.1
			C151.2,146.5,144.3,158.4,135.5,158.4z M135.5,107.1c-7,0-12.9,11.1-12.9,24.2c0,13.1,5.9,24.2,12.9,24.2s12.9-11.1,12.9-24.2
			C148.3,118.2,142.4,107.1,135.5,107.1z"/>
	</g>
	<ellipse id="XMLID_299_" class="st1" cx="135.5" cy="131.3" rx="4.2" ry="7.6"/>
	<g class="st2">
		<path class="st3" d="M74.4,158.4c-8.8,0-15.7-11.9-15.7-27.1c0-15.2,6.9-27.1,15.7-27.1c8.8,0,15.7,11.9,15.7,27.1
			C90.1,146.5,83.2,158.4,74.4,158.4z M74.4,107.1c-7,0-12.9,11.1-12.9,24.2c0,13.1,5.9,24.2,12.9,24.2c7,0,12.9-11.1,12.9-24.2
			C87.3,118.2,81.4,107.1,74.4,107.1z"/>
	</g>
	<ellipse id="XMLID_296_" class="st1" cx="74.4" cy="131.3" rx="4.2" ry="7.6"/>
	<g class="st2">
		<g>
			<path class="st3" d="M135.5,159h-14.3c-8.8,0-15.7-12.3-15.7-27.5c0-15.2,6.9-27.5,15.7-27.5h14.3c0.8,0,1.4,0.8,1.4,1.6
				c0,0.8-0.6,1.5-1.4,1.5c-7,0-12.9,11.1-12.9,24.2c0,13.1,5.9,24.2,12.9,24.2c0.8,0,1.4,1,1.4,1.7C136.9,158,136.2,159,135.5,159z
				 M122,107.2c-8,0-13.3,11.3-13.3,24.4c0,13.1,5.5,24.4,12.4,24.4h7.1c-5.1-5-8.6-13.3-8.6-24c0-10.7,3.4-20,8.6-24H122V107.2z"/>
		</g>
		<g>
			<polygon id="XMLID_293_" class="st3" points="135.5,157 135.5,157 135.5,157 			"/>
			<path id="XMLID_292_" class="st3" d="M135.5,159L135.5,159c-0.8,0-1.5-0.9-1.5-1.7c0-0.8,0.6-1.6,1.4-1.6s1.4,0.9,1.4,1.7
				C136.9,158.1,136.3,159,135.5,159z"/>
		</g>
	</g>
	<g class="st2">
		<g>
			<path class="st3" d="M74.4,159H60.1c-8.8,0-15.7-12.3-15.7-27.5c0-15.2,6.9-27.5,15.7-27.5h14.3c0.8,0,1.4,0.8,1.4,1.6
				c0,0.8-0.6,1.5-1.4,1.5c-7,0-12.9,11.1-12.9,24.2c0,13.1,5.9,24.2,12.9,24.2c0.8,0,1.4,1,1.4,1.7C75.8,158,75.2,159,74.4,159z
				 M60,107.2c-7,0-12.8,11.3-12.8,24.4c0,13.1,5.9,24.4,12.9,24.4h7.1c-5.1-5-8.6-13.3-8.6-24c0-10.7,3.4-20,8.6-24H60V107.2z"/>
		</g>
		<g>
			<polygon id="XMLID_289_" class="st3" points="74.4,157 74.4,157 74.4,157 			"/>
			<path id="XMLID_288_" class="st3" d="M74.4,159L74.4,159c-0.8,0-1.5-0.9-1.5-1.7c0-0.8,0.6-1.6,1.4-1.6s1.5,0.9,1.5,1.7
				C75.8,158.1,75.2,159,74.4,159z"/>
		</g>
	</g>
</g>
<g class="st0">
	<g class="st2">
		<path id="XMLID_287_" class="st3" d="M73.2,50.8c-0.4,0-0.7-0.3-0.7-0.6c0-0.4,0.2-0.7,0.6-0.8c0.1,0,11.3-1.3,24.5-6.2
			c12.1-4.5,28.5-13.1,37.4-28.4c0.2-0.3,0.6-0.5,1-0.3c0.3,0.2,0.5,0.6,0.3,1c-9.1,15.7-25.8,24.5-38.2,29.1
			C84.8,49.5,73.4,50.8,73.2,50.8C73.3,50.8,73.2,50.8,73.2,50.8z"/>
		<path id="XMLID_286_" class="st3" d="M85.7,83.3c-0.3,0-0.6-0.2-0.7-0.6c-0.1-0.4,0.2-0.8,0.6-0.8c0.3-0.1,27.2-5.3,37-32
			c0.1-0.4,0.5-0.6,0.9-0.4c0.4,0.1,0.6,0.5,0.4,0.9c-10,27.6-37.8,32.9-38,33C85.8,83.3,85.7,83.3,85.7,83.3z"/>
		<path class="st3" d="M98.2,24c-40.3,0-41.4-12.5-41.4-13.9c0-1.4,1.2-13.9,41.4-13.9c40.3,0,41.4,12.5,41.4,13.9
			C139.6,11.5,138.5,24,98.2,24z M98.2-1C60.7-1,59.6,10,59.6,10.2c0,0,1.1,11,38.6,11c37.5,0,38.6-10.9,38.6-11.1
			C136.8,10,135.7-1,98.2-1z"/>
		<path class="st3" d="M98.2,119.1L98.2,119.1c-0.6,0-1.1-0.4-1.3-0.9L57.8,13c-0.3-0.7,0.1-1.5,0.7-1.8c0.7-0.3,1.5-0.1,1.9,0.5
			c1.8,2.8,9,9.4,37.9,9.4c28.8,0,36.1-6.6,37.9-9.4c0.4-0.6,1.2-0.8,1.9-0.5s1,1.1,0.7,1.8L99.6,118.1
			C99.3,118.7,98.8,119.1,98.2,119.1z M62.5,17.6l35.7,95.9l35.7-95.9c-5.3,3.3-15.7,6.5-35.7,6.5C78.2,24,67.8,20.9,62.5,17.6z"/>
	</g>
	<g class="st2">
		<path id="XMLID_281_" class="st3" d="M98.5-9.2c-0.4,0-0.5-0.3-0.5-0.7v-19.6c0-0.4,0.1-0.7,0.5-0.7s0.5,0.3,0.5,0.7v19.6
			C99-9.5,98.9-9.2,98.5-9.2z"/>
		<path class="st3" d="M98.5-28.8c-2.8,0-5-2.3-5-5c0-2.8,2.3-5,5-5c2.8,0,5,2.3,5,5C103.5-31,101.3-28.8,98.5-28.8z M98.5-37.4
			c-2,0-3.6,1.6-3.6,3.6c0,2,1.6,3.6,3.6,3.6c2,0,3.6-1.6,3.6-3.6C102.1-35.8,100.5-37.4,98.5-37.4z"/>
	</g>
	<g class="st2">
		<path class="st3" d="M42.5,103.7c-4,0-11.5-2.4-11.5-11.7V40.8c0-9.2,7.5-11.7,11.5-11.7c9.2,0,11.5,7.6,11.5,11.7V92
			C54,101.2,46.5,103.7,42.5,103.7z M42,32c-0.9,0-9,0.3-9,8.8V92c0,8.7,8.6,8.8,9,8.8c0.9,0,9-0.3,9-8.8V40.8
			C51,39.9,50.5,32,42,32z"/>
	</g>
	<g class="st2">
		<path class="st3" d="M153.5,103.7c-4,0-11.5-2.4-11.5-11.7V40.8c0-9.2,7.5-11.7,11.5-11.7c9.2,0,11.5,7.6,11.5,11.7V92
			C165,101.2,157.5,103.7,153.5,103.7z M154,32c-0.9,0-9,0.3-9,8.8V92c0,8.5,8.1,8.8,9,8.8c0.9,0,9-0.3,9-8.8V40.8
			C163,39.9,162.5,32,154,32z"/>
	</g>
	<g class="st2">
		<path class="st3" d="M135.7,176.1c-8.8,0-15.7-11.9-15.7-27.1c0-15.2,6.9-27.1,15.7-27.1c8.8,0,15.7,11.9,15.7,27.1
			C151.4,164.2,144.5,176.1,135.7,176.1z M135.7,124.8c-7,0-12.9,11.1-12.9,24.2c0,13.1,5.9,24.2,12.9,24.2c7,0,12.9-11.1,12.9-24.2
			C148.6,135.9,142.7,124.8,135.7,124.8z"/>
	</g>
	<path id="XMLID_272_" class="st1" d="M139.9,149.1c0,4.2-1.9,7.6-4.2,7.6s-4.2-3.4-4.2-7.6c0-4.2,1.9-7.6,4.2-7.6
		C138,141.4,139.9,144.8,139.9,149.1z"/>
	<g class="st2">
		<path class="st3" d="M74.6,176.1c-8.8,0-15.7-11.9-15.7-27.1c0-15.2,6.9-27.1,15.7-27.1s15.7,11.9,15.7,27.1
			C90.4,164.2,83.5,176.1,74.6,176.1z M74.6,124.8c-7,0-12.9,11.1-12.9,24.2c0,13.1,5.9,24.2,12.9,24.2c7,0,12.9-11.1,12.9-24.2
			C87.5,135.9,81.6,124.8,74.6,124.8z"/>
	</g>
	<path id="XMLID_269_" class="st1" d="M78.9,149.1c0,4.2-1.9,7.6-4.2,7.6c-2.3,0-4.2-3.4-4.2-7.6c0-4.2,1.9-7.6,4.2-7.6
		C77,141.4,78.9,144.8,78.9,149.1z"/>
	<g class="st2">
		<g>
			<path class="st3" d="M135.7,176h-14.3c-8.8,0-15.7-11.8-15.7-27c0-15.2,6.9-27,15.7-27h14.3c0.8,0,1.4,0.6,1.4,1.4
				c0,0.8-0.6,1.4-1.4,1.4c-7,0-12.9,11.1-12.9,24.2c0,13.1,5.9,24.2,12.9,24.2c0.8,0,1.4,0.6,1.4,1.4
				C137.1,175.4,136.5,176,135.7,176z M122,124.9c-8,0-13.2,11.4-13.2,24.6c0,13.1,5.6,24.6,12.6,24.6h7.1c-5.1-5-8.6-13.8-8.6-24.5
				c0-10.7,3.4-20.5,8.6-24.5H122V124.9z"/>
		</g>
		<g>
			<polygon id="XMLID_266_" class="st3" points="135.7,174.7 135.7,174.7 135.7,174.7 			"/>
			<path id="XMLID_265_" class="st3" d="M135.7,176L135.7,176c-0.8,0-1.5-0.6-1.5-1.4c0-0.7,0.5-1.3,1.2-1.4
				c0.9-0.2,1.7,0.5,1.7,1.4C137.2,175.4,136.5,176,135.7,176z"/>
		</g>
	</g>
	<g class="st2">
		<g>
			<path class="st3" d="M74.6,176H60.3c-8.8,0-15.7-11.8-15.7-27c0-15.2,6.9-27,15.7-27h14.3c0.8,0,1.4,0.6,1.4,1.4
				c0,0.8-0.6,1.4-1.4,1.4c-7,0-12.9,11.1-12.9,24.2c0,13.1,5.9,24.2,12.9,24.2c0.8,0,1.4,0.6,1.4,1.4C76.1,175.4,75.4,176,74.6,176
				z M61,124.9c-8,0-13.2,11.4-13.2,24.6c0,13.1,5.6,24.6,12.5,24.6h7.1c-5.1-5-8.6-13.8-8.6-24.5c0-10.7,3.4-20.5,8.6-24.5H61
				V124.9z"/>
		</g>
		<g>
			<polygon id="XMLID_262_" class="st3" points="74.6,174.7 74.7,174.7 74.7,174.7 			"/>
			<path id="XMLID_261_" class="st3" d="M74.7,176L74.7,176c-0.8,0-1.5-0.6-1.5-1.4c0-0.7,0.5-1.3,1.2-1.4c0.9-0.2,1.7,0.5,1.7,1.4
				C76.1,175.4,75.5,176,74.7,176z"/>
		</g>
	</g>
</g>
<g class="st0">
	<path class="st1" d="M97.5,121.4c-1.6,0-4.6-0.7-4.6-3.4c0-1-0.6-1.5-1.3-2.3c-1.1-1.2-2.6-2.6-2.6-6.1V45.8c0-0.3,0.5-0.8,0.9-0.8
		h15.2c0.4,0,0.9,0.5,0.9,0.8v63.9c0,3.4-1.5,4.9-2.6,6.1c-0.7,0.8-1.3,1.3-1.3,2.3C102.1,120.7,99.1,121.4,97.5,121.4z M91,46v63.7
		c0,3.1,1,4.3,2.1,5.4c0.8,0.8,1.5,1.6,1.5,3c0,2.1,2.6,2.2,2.9,2.2c0.3,0,3-0.1,3-2.2c0-1.3,0.6-2.1,1.4-3c1-1.1,2.1-2.3,2.1-5.4
		V46H91z"/>
	<g class="st2">
		<path class="st3" d="M105.2,48H91.7c-1.9,0-4.7-1.2-4.7-4.7V19c-2-2.7-3.4-6-3.4-9.4c0-8.2,6.7-14.9,14.9-14.9
			c8.2,0,14.9,6.7,14.9,14.9c0,3.4-1.4,6.7-3.4,9.4v24.2C110,46.8,107.1,48,105.2,48z M98.5-2.4c-6.6,0-12,5.4-12,12
			c0,2.9,1.2,5.7,3.1,7.9c0.2,0.3,0.5,0.6,0.5,0.9v24.8c0,1.8,1.3,1.7,1.7,1.7h13.4c0.6,0,1.8,0,1.8-1.7V18.5c0-0.3,0.2-0.7,0.4-0.9
			c1.9-2.2,3-5,3-7.9C110.4,3,105.1-2.4,98.5-2.4z"/>
	</g>
	<g class="st2">
		<path id="XMLID_256_" class="st3" d="M98-13.2c-0.4,0,0-0.3,0-0.7v-19.6c0-0.4-0.4-0.7,0-0.7s0,0.3,0,0.7V-14
			C98-13.6,98.4-13.2,98-13.2z"/>
		<path class="st3" d="M98.1-32.8c-2.8,0-5-2.3-5-5c0-2.8,2.3-5,5-5c2.8,0,5,2.3,5,5C103.1-35.1,100.9-32.8,98.1-32.8z M98.1-41.5
			c-2,0-3.6,1.6-3.6,3.6c0,2,1.6,3.6,3.6,3.6s3.6-1.6,3.6-3.6C101.7-39.9,100.1-41.5,98.1-41.5z"/>
	</g>
	<g class="st2">
		<path class="st3" d="M61.5,113c-4,0-11.5-2.4-11.5-11.7V50.1c0-9.2,7.5-11.7,11.5-11.7c9.2,0,11.5,7.6,11.5,11.7v51.2
			C73,110.6,65.5,113,61.5,113z M61,41.3c-0.9,0-9,0.3-9,8.8v51.2c0,8.7,8.6,8.8,9,8.8c0.9,0,9-0.3,9-8.8V50.1
			C70,49.2,69.5,41.3,61,41.3z"/>
	</g>
	<g class="st2">
		<path class="st3" d="M135.5,113c-4,0-11.5-2.4-11.5-11.7V50.1c0-9.2,7.5-11.7,11.5-11.7c9.2,0,11.5,7.6,11.5,11.7v51.2
			C147,110.6,139.5,113,135.5,113z M136,41.3c-0.9,0-9,0.3-9,8.8v51.2c0,8.7,8.6,8.8,9,8.8c0.9,0,9-0.3,9-8.8V50.1
			C145,49.2,144.5,41.3,136,41.3z"/>
	</g>
	<g class="st2">
		<path class="st3" d="M135.7,180.2c-8.8,0-15.7-11.9-15.7-27.1c0-15.2,6.9-27.1,15.7-27.1c8.8,0,15.7,11.9,15.7,27.1
			C151.4,168.3,144.5,180.2,135.7,180.2z M135.7,128.9c-7,0-12.9,11.1-12.9,24.2c0,13.1,5.9,24.2,12.9,24.2s12.9-11.1,12.9-24.2
			C148.5,140,142.6,128.9,135.7,128.9z"/>
	</g>
	<ellipse id="XMLID_247_" class="st1" cx="135.7" cy="153.2" rx="4.2" ry="7.6"/>
	<g class="st2">
		<path class="st3" d="M74.6,180.2c-8.8,0-15.7-11.9-15.7-27.1c0-15.2,6.9-27.1,15.7-27.1c8.8,0,15.7,11.9,15.7,27.1
			C90.3,168.3,83.4,180.2,74.6,180.2z M74.6,128.9c-7,0-12.9,11.1-12.9,24.2c0,13.1,5.9,24.2,12.9,24.2c7,0,12.9-11.1,12.9-24.2
			C87.5,140,81.6,128.9,74.6,128.9z"/>
	</g>
	<ellipse id="XMLID_244_" class="st1" cx="74.6" cy="153.2" rx="4.2" ry="7.6"/>
	<g class="st2">
		<g>
			<path class="st3" d="M135.7,180h-14.3c-8.8,0-15.7-11.3-15.7-26.5c0-15.2,6.9-26.5,15.7-26.5h14.3c0.8,0,1.4,0.2,1.4,1
				c0,0.8-0.6,1.2-1.4,1.2c-7,0-12.9,11-12.9,24.1c0,13.1,5.9,24.1,12.9,24.1c0.8,0,1.4,0.5,1.4,1.3
				C137.1,179.5,136.4,180,135.7,180z M122,128.8c-8,0-13.2,11-13.2,24.1c0,13.1,5.6,24.1,12.5,24.1h7.1c-5.1-4-8.6-13.8-8.6-24.5
				c0-10.7,3.4-19.5,8.6-24.5H122V128.8z"/>
		</g>
		<g>
			<polygon id="XMLID_241_" class="st3" points="135.7,178.8 135.7,178.8 135.7,178.8 			"/>
			<path id="XMLID_240_" class="st3" d="M135.7,180L135.7,180c-0.8,0-1.5-0.5-1.5-1.3c0-0.8,0.6-1.4,1.4-1.4s1.5,0.6,1.5,1.3
				C137.1,179.4,136.5,180,135.7,180z"/>
		</g>
	</g>
	<g class="st2">
		<g>
			<path class="st3" d="M74.6,180H60.3c-8.8,0-15.7-11.3-15.7-26.5c0-15.2,6.9-26.5,15.7-26.5h14.3c0.8,0,1.4,0.2,1.4,1
				c0,0.8-0.6,1.2-1.4,1.2c-7,0-12.9,11-12.9,24.1c0,13.1,5.9,24.1,12.9,24.1c0.8,0,1.4,0.5,1.4,1.3C76,179.5,75.4,180,74.6,180z
				 M61,128.8c-8,0-13.2,11-13.2,24.1c0,13.1,5.5,24.1,12.5,24.1h7.1c-5.1-4-8.6-13.8-8.6-24.5c0-10.7,3.4-19.5,8.6-24.5H61V128.8z"
				/>
		</g>
		<g>
			<polygon id="XMLID_237_" class="st3" points="74.6,178.8 74.6,178.8 74.6,178.8 			"/>
			<path id="XMLID_236_" class="st3" d="M74.6,180L74.6,180c-0.8,0-1.5-0.5-1.5-1.3c0-0.8,0.6-1.4,1.4-1.4s1.5,0.6,1.5,1.3
				C76,179.4,75.4,180,74.6,180z"/>
		</g>
	</g>
</g>
<g class="st0">
	<g class="st2">
		<g>
			<path id="XMLID_235_" class="st3" d="M119.7,100H74.5c-0.4,0-0.7-0.6-0.7-1s0.3-1,0.7-1h45.2c0.4,0,0.7,0.6,0.7,1
				S120.1,100,119.7,100z"/>
			<g>
				<path id="XMLID_234_" class="st3" d="M97.5,93.3c-0.4,0-0.5-0.3-0.5-0.7V70.9c0-0.4,0.1-0.7,0.5-0.7s0.5,0.3,0.5,0.7v21.7
					C98,93,97.9,93.3,97.5,93.3z"/>
				<path id="XMLID_233_" class="st3" d="M104.4,78.8c-0.2,0-0.4-0.1-0.5-0.2l-6.7-6.7l-6.7,6.7c-0.3,0.3-0.7,0.3-1,0s-0.3-0.7,0-1
					l7.2-7.2c0.1-0.1,0.3-0.2,0.5-0.2l0,0c0.2,0,0.4,0.1,0.5,0.2l7.2,7.2c0.3,0.3,0.3,0.7,0,1C104.7,78.7,104.6,78.8,104.4,78.8z"/>
			</g>
		</g>
		<g>
			<path id="XMLID_232_" class="st3" d="M116.5,63.5c-0.4,0-0.8-0.2-1.1-0.5c-0.1-0.1-6-6.7-17.6-6.7c-11.6,0-17.5,6.6-17.6,6.7
				c-0.5,0.6-1.4,0.7-2,0.1c-0.6-0.5-0.7-1.4-0.1-2c0.3-0.3,6.8-7.7,19.7-7.7c12.9,0,19.4,7.3,19.7,7.7c0.5,0.6,0.5,1.5-0.1,2
				C117.2,63.3,116.9,63.5,116.5,63.5z"/>
			<path id="XMLID_231_" class="st3" d="M124.3,54.1c-0.4,0-0.8-0.2-1.1-0.5c-0.1-0.1-8.7-9.3-25.3-9.3c-16.7,0-25.3,9.2-25.3,9.3
				c-0.5,0.6-1.4,0.6-2,0.1c-0.6-0.5-0.7-1.4-0.1-2c0.4-0.4,9.4-10.2,27.5-10.2c18,0,27.1,9.8,27.5,10.2c0.5,0.6,0.5,1.5-0.1,2
				C125,54,124.6,54.1,124.3,54.1z"/>
			<path id="XMLID_230_" class="st3" d="M132.1,44.8c-0.4,0-0.8-0.2-1.1-0.5c-0.1-0.1-11.3-11.9-33.1-11.9
				c-21.8,0-33,11.8-33.1,11.9c-0.5,0.6-1.4,0.6-2,0.1c-0.6-0.5-0.6-1.4-0.1-2c0.5-0.5,12.1-12.8,35.2-12.8
				c23.1,0,34.8,12.3,35.2,12.8c0.5,0.6,0.5,1.5-0.1,2C132.8,44.7,132.4,44.8,132.1,44.8z"/>
			<path id="XMLID_229_" class="st3" d="M139.8,35.5c-0.4,0-0.8-0.2-1.1-0.5c-0.1-0.1-13.9-14.5-40.9-14.5S57.2,34.9,57,35
				c-0.5,0.6-1.4,0.6-2,0.1c-0.6-0.5-0.6-1.4-0.1-2c0.6-0.6,14.7-15.4,43-15.4c28.3,0,42.4,14.8,43,15.4c0.5,0.6,0.5,1.5-0.1,2
				C140.5,35.4,140.2,35.5,139.8,35.5z"/>
			<path id="XMLID_228_" class="st3" d="M147.6,26.2c-0.4,0-0.8-0.1-1-0.4C146.4,25.6,130,8.7,97.9,8.7c-32.1,0-48.5,16.9-48.7,17.1
				c-0.5,0.6-1.5,0.6-2,0.1c-0.6-0.5-0.6-1.4-0.1-2c0.7-0.7,17.4-18,50.7-18c33.4,0,50,17.2,50.7,18c0.5,0.6,0.5,1.5-0.1,2
				C148.3,26,148,26.2,147.6,26.2z"/>
		</g>
	</g>
	<g class="st2">
		<path class="st3" d="M32.5,104.9c-4,0-11.5-2.4-11.5-11.7V42.1c0-9.2,7.5-11.7,11.5-11.7C41.7,30.4,44,38,44,42.1v51.2
			C44,102.5,36.5,104.9,32.5,104.9z M33,33.2c-0.9,0-9,0.3-9,8.8v51.2c0,8.7,8.6,8.8,9,8.8c0.9,0,9-0.3,9-8.8V42.1
			C42,41.2,41.5,33.2,33,33.2z"/>
	</g>
	<g class="st2">
		<path class="st3" d="M163,104.6c-4,0-12-2.4-12-11.7V41.7c0-9.2,8-11.7,12-11.7c9.2,0,12,7.6,12,11.7v51.2
			C175,102.1,167,104.6,163,104.6z M163.5,32.9c-0.9,0-8.5,0.3-8.5,8.8v51.2c0,8.7,8.1,8.8,8.5,8.8c0.9,0,8.5-0.3,8.5-8.8V41.7
			C172,40.8,172,32.9,163.5,32.9z"/>
	</g>
	<path id="XMLID_223_" class="st1" d="M98-0.1c-0.4,0,0-0.3,0-0.7v-19.6c0-0.4-0.4-0.7,0-0.7s0,0.3,0,0.7v19.6
		C98-0.4,98.4-0.1,98-0.1z"/>
	<path class="st1" d="M97.8-19.7c-2.8,0-5-2.3-5-5c0-2.8,2.3-5,5-5c2.8,0,5,2.3,5,5C102.8-21.9,100.6-19.7,97.8-19.7z M97.8-28.3
		c-2,0-3.6,1.6-3.6,3.6s1.6,3.6,3.6,3.6c2,0,3.6-1.6,3.6-3.6C101.4-26.7,99.8-28.3,97.8-28.3z"/>
	<g class="st2">
		<path class="st3" d="M134.3,167.1c-8.8,0-15.7-11.9-15.7-27.1c0-15.2,6.9-27.1,15.7-27.1S150,124.8,150,140
			C150,155.2,143.1,167.1,134.3,167.1z M134.3,115.8c-7,0-12.9,11.1-12.9,24.2c0,13.1,5.9,24.2,12.9,24.2s12.9-11.1,12.9-24.2
			C147.2,126.9,141.3,115.8,134.3,115.8z"/>
	</g>
	<ellipse id="XMLID_218_" class="st1" cx="134.3" cy="140" rx="4.2" ry="7.6"/>
	<g class="st2">
		<path class="st3" d="M73.2,167.1c-8.8,0-15.7-11.9-15.7-27.1c0-15.2,6.9-27.1,15.7-27.1c8.8,0,15.7,11.9,15.7,27.1
			C89,155.2,82.1,167.1,73.2,167.1z M73.2,115.8c-7,0-12.9,11.1-12.9,24.2c0,13.1,5.9,24.2,12.9,24.2c7,0,12.9-11.1,12.9-24.2
			C86.1,126.9,80.2,115.8,73.2,115.8z"/>
	</g>
	<ellipse id="XMLID_215_" class="st1" cx="73.2" cy="140" rx="4.2" ry="7.6"/>
	<g class="st2">
		<g>
			<path class="st3" d="M134.3,167H120c-8.8,0-15.7-11.8-15.7-27c0-15.2,6.9-27,15.7-27h14.3c0.8,0,1.4,0.6,1.4,1.4
				s-0.6,1.4-1.4,1.4c-7,0-12.9,11.1-12.9,24.2c0,13.1,5.9,24.2,12.9,24.2c0.8,0,1.4,0.6,1.4,1.4C135.7,166.4,135.1,167,134.3,167z
				 M120,116c-7,0-12.9,10.9-12.9,24c0,13.1,5.9,24,12.9,24h7.1c-5.1-5-8.6-13.3-8.6-24c0-10.7,3.4-19,8.6-24H120z"/>
		</g>
		<g>
			<polygon id="XMLID_212_" class="st3" points="134.3,165.6 134.3,165.6 134.3,165.6 			"/>
			<path id="XMLID_211_" class="st3" d="M134.3,167L134.3,167c-0.8,0-1.5-0.6-1.5-1.4c0-0.7,0.5-1.3,1.2-1.4
				c0.9-0.2,1.7,0.5,1.7,1.4C135.8,166.4,135.1,167,134.3,167z"/>
		</g>
	</g>
	<g class="st2">
		<g>
			<path class="st3" d="M73.2,167H58.9c-8.8,0-15.7-11.8-15.7-27c0-15.2,6.9-27,15.7-27h14.3c0.8,0,1.4,0.6,1.4,1.4
				s-0.6,1.4-1.4,1.4c-7,0-12.9,11.1-12.9,24.2c0,13.1,5.9,24.2,12.9,24.2c0.8,0,1.4,0.6,1.4,1.4C74.7,166.4,74,167,73.2,167z
				 M58.9,116c-7,0-12.9,10.9-12.9,24c0,13.1,5.9,24,12.9,24h7.1c-5.1-5-8.6-13.3-8.6-24c0-10.7,3.4-19,8.6-24H58.9z"/>
		</g>
		<g>
			<polygon id="XMLID_208_" class="st3" points="73.2,165.6 73.3,165.6 73.3,165.6 			"/>
			<path id="XMLID_207_" class="st3" d="M73.3,167L73.3,167c-0.8,0-1.5-0.6-1.5-1.4c0-0.7,0.5-1.3,1.2-1.4c0.9-0.2,1.7,0.5,1.7,1.4
				C74.7,166.4,74.1,167,73.3,167z"/>
		</g>
	</g>
</g>
<g class="st0">
	<path id="XMLID_206_" class="st1" d="M119.7,100H74.5c-0.4,0-0.7-0.6-0.7-1s0.3-1,0.7-1h45.2c0.4,0,0.7,0.6,0.7,1
		S120.1,100,119.7,100z"/>
	<g class="st2">
		<path id="XMLID_205_" class="st3" d="M97.5,70.1c0.4,0,0.5,0.3,0.5,0.7v21.7c0,0.4-0.1,0.7-0.5,0.7S97,93,97,92.6V70.9
			C97,70.5,97.1,70.1,97.5,70.1z"/>
		<path id="XMLID_204_" class="st3" d="M89.9,84.6c0.2,0,0.4,0.1,0.5,0.2l6.7,6.7l6.7-6.7c0.3-0.3,0.7-0.3,1,0s0.3,0.7,0,1l-7.2,7.2
			c-0.1,0.1-0.3,0.2-0.5,0.2l0,0c-0.2,0-0.4-0.1-0.5-0.2l-7.2-7.2c-0.3-0.3-0.3-0.7,0-1C89.5,84.7,89.7,84.6,89.9,84.6z"/>
	</g>
	<g class="st2">
		<path id="XMLID_203_" class="st3" d="M116.5,63.5c-0.4,0-0.8-0.2-1.1-0.5c-0.1-0.1-6-6.7-17.6-6.7c-11.6,0-17.5,6.6-17.6,6.7
			c-0.5,0.6-1.4,0.7-2,0.1c-0.6-0.5-0.7-1.4-0.1-2c0.3-0.3,6.8-7.7,19.7-7.7c12.9,0,19.4,7.3,19.7,7.7c0.5,0.6,0.5,1.5-0.1,2
			C117.2,63.3,116.9,63.5,116.5,63.5z"/>
		<path id="XMLID_202_" class="st3" d="M124.3,54.1c-0.4,0-0.8-0.2-1.1-0.5c-0.1-0.1-8.7-9.3-25.3-9.3c-16.7,0-25.3,9.2-25.3,9.3
			c-0.5,0.6-1.4,0.6-2,0.1c-0.6-0.5-0.7-1.4-0.1-2c0.4-0.4,9.4-10.2,27.5-10.2c18,0,27.1,9.8,27.5,10.2c0.5,0.6,0.5,1.5-0.1,2
			C125,54,124.6,54.1,124.3,54.1z"/>
		<path id="XMLID_201_" class="st3" d="M132.1,44.8c-0.4,0-0.8-0.2-1.1-0.5c-0.1-0.1-11.3-11.9-33.1-11.9c-21.8,0-33,11.8-33.1,11.9
			c-0.5,0.6-1.4,0.6-2,0.1c-0.6-0.5-0.6-1.4-0.1-2c0.5-0.5,12.1-12.8,35.2-12.8c23.1,0,34.8,12.3,35.2,12.8c0.5,0.6,0.5,1.5-0.1,2
			C132.8,44.7,132.4,44.8,132.1,44.8z"/>
		<path id="XMLID_200_" class="st3" d="M139.8,35.5c-0.4,0-0.8-0.2-1.1-0.5c-0.1-0.1-13.9-14.5-40.9-14.5S57.2,34.9,57,35
			c-0.5,0.6-1.4,0.6-2,0.1c-0.6-0.5-0.6-1.4-0.1-2c0.6-0.6,14.7-15.4,43-15.4c28.3,0,42.4,14.8,43,15.4c0.5,0.6,0.5,1.5-0.1,2
			C140.5,35.4,140.2,35.5,139.8,35.5z"/>
		<path id="XMLID_199_" class="st3" d="M147.6,26.2c-0.4,0-0.8-0.1-1-0.4C146.4,25.6,130,8.7,97.9,8.7c-32.1,0-48.5,16.9-48.7,17.1
			c-0.5,0.6-1.5,0.6-2,0.1c-0.6-0.5-0.6-1.4-0.1-2c0.7-0.7,17.4-18,50.7-18c33.4,0,50,17.2,50.7,18c0.5,0.6,0.5,1.5-0.1,2
			C148.3,26,148,26.2,147.6,26.2z"/>
	</g>
	<g class="st2">
		<path class="st3" d="M32.5,104.9c-4,0-11.5-2.4-11.5-11.7V42.1c0-9.2,7.5-11.7,11.5-11.7C41.7,30.4,44,38,44,42.1v51.2
			C44,102.5,36.5,104.9,32.5,104.9z M33,33.2c-0.9,0-9,0.3-9,8.8v51.2c0,8.7,8.6,8.8,9,8.8c0.9,0,9-0.3,9-8.8V42.1
			C42,41.2,41.5,33.2,33,33.2z"/>
	</g>
	<g class="st2">
		<path class="st3" d="M163,104.6c-4,0-12-2.4-12-11.7V41.7c0-9.2,8-11.7,12-11.7c9.2,0,12,7.6,12,11.7v51.2
			C175,102.1,167,104.6,163,104.6z M163.5,32.9c-0.9,0-8.5,0.3-8.5,8.8v51.2c0,8.7,8.1,8.8,8.5,8.8c0.9,0,8.5-0.3,8.5-8.8V41.7
			C172,40.8,172,32.9,163.5,32.9z"/>
	</g>
	<path id="XMLID_194_" class="st1" d="M98-0.1c-0.4,0,0-0.3,0-0.7v-19.6c0-0.4-0.4-0.7,0-0.7s0,0.3,0,0.7v19.6
		C98-0.4,98.4-0.1,98-0.1z"/>
	<path class="st1" d="M97.8-19.7c-2.8,0-5-2.3-5-5c0-2.8,2.3-5,5-5c2.8,0,5,2.3,5,5C102.8-21.9,100.6-19.7,97.8-19.7z M97.8-28.3
		c-2,0-3.6,1.6-3.6,3.6s1.6,3.6,3.6,3.6c2,0,3.6-1.6,3.6-3.6C101.4-26.7,99.8-28.3,97.8-28.3z"/>
	<g class="st2">
		<path class="st3" d="M134.3,167.1c-8.8,0-15.7-11.9-15.7-27.1c0-15.2,6.9-27.1,15.7-27.1S150,124.8,150,140
			C150,155.2,143.1,167.1,134.3,167.1z M134.3,115.8c-7,0-12.9,11.1-12.9,24.2c0,13.1,5.9,24.2,12.9,24.2s12.9-11.1,12.9-24.2
			C147.2,126.9,141.3,115.8,134.3,115.8z"/>
	</g>
	<ellipse id="XMLID_189_" class="st1" cx="134.3" cy="140" rx="4.2" ry="7.6"/>
	<g class="st2">
		<path class="st3" d="M73.2,167.1c-8.8,0-15.7-11.9-15.7-27.1c0-15.2,6.9-27.1,15.7-27.1c8.8,0,15.7,11.9,15.7,27.1
			C89,155.2,82.1,167.1,73.2,167.1z M73.2,115.8c-7,0-12.9,11.1-12.9,24.2c0,13.1,5.9,24.2,12.9,24.2c7,0,12.9-11.1,12.9-24.2
			C86.1,126.9,80.2,115.8,73.2,115.8z"/>
	</g>
	<ellipse id="XMLID_186_" class="st1" cx="73.2" cy="140" rx="4.2" ry="7.6"/>
	<g class="st2">
		<g>
			<path class="st3" d="M134.3,167H120c-8.8,0-15.7-11.8-15.7-27c0-15.2,6.9-27,15.7-27h14.3c0.8,0,1.4,0.6,1.4,1.4
				s-0.6,1.4-1.4,1.4c-7,0-12.9,11.1-12.9,24.2c0,13.1,5.9,24.2,12.9,24.2c0.8,0,1.4,0.6,1.4,1.4C135.7,166.4,135.1,167,134.3,167z
				 M120,116c-7,0-12.9,10.9-12.9,24c0,13.1,5.9,24,12.9,24h7.1c-5.1-5-8.6-13.3-8.6-24c0-10.7,3.4-19,8.6-24H120z"/>
		</g>
		<g>
			<polygon id="XMLID_183_" class="st3" points="134.3,165.6 134.3,165.6 134.3,165.6 			"/>
			<path id="XMLID_182_" class="st3" d="M134.3,167L134.3,167c-0.8,0-1.5-0.6-1.5-1.4c0-0.7,0.5-1.3,1.2-1.4
				c0.9-0.2,1.7,0.5,1.7,1.4C135.8,166.4,135.1,167,134.3,167z"/>
		</g>
	</g>
	<g class="st2">
		<g>
			<path class="st3" d="M73.2,167H58.9c-8.8,0-15.7-11.8-15.7-27c0-15.2,6.9-27,15.7-27h14.3c0.8,0,1.4,0.6,1.4,1.4
				s-0.6,1.4-1.4,1.4c-7,0-12.9,11.1-12.9,24.2c0,13.1,5.9,24.2,12.9,24.2c0.8,0,1.4,0.6,1.4,1.4C74.7,166.4,74,167,73.2,167z
				 M58.9,116c-7,0-12.9,10.9-12.9,24c0,13.1,5.9,24,12.9,24h7.1c-5.1-5-8.6-13.3-8.6-24c0-10.7,3.4-19,8.6-24H58.9z"/>
		</g>
		<g>
			<polygon id="XMLID_179_" class="st3" points="73.2,165.6 73.3,165.6 73.3,165.6 			"/>
			<path id="XMLID_178_" class="st3" d="M73.3,167L73.3,167c-0.8,0-1.5-0.6-1.5-1.4c0-0.7,0.5-1.3,1.2-1.4c0.9-0.2,1.7,0.5,1.7,1.4
				C74.7,166.4,74.1,167,73.3,167z"/>
		</g>
	</g>
</g>
<g class="st0">
	<g class="st2">
		<path class="st3" d="M98.5,118.6c-14.6,0-25.5-5.2-25.5-12V5c0-0.8,0.2-1.4,1-1.4s1.2,0.6,1.2,1.4c0,4.3,9.4,9.1,23,9.1
			c13.6,0,23-4.8,23-9.1c0-0.8,0.6-1.4,1.4-1.4S124,4.2,124,5v101.6C124,113.3,113.1,118.6,98.5,118.6z M75,10.6v96
			c0,4.3,9.9,9.1,23.5,9.1c13.6,0,23.5-4.8,23.5-9.1v-96c-5,3.8-13.3,6.4-23.5,6.4C88.3,17,79,14.4,75,10.6z"/>
	</g>
	<g class="st2">
		<path class="st3" d="M98.3,48.9c-12.3,0-25.1-3.3-25.1-8.8c0-5.5,12.8-8.8,25.1-8.8c12.3,0,25.1,3.3,25.1,8.8
			C123.4,45.6,110.7,48.9,98.3,48.9z M98.3,32.7c-13.9,0-23.7,3.9-23.7,7.4c0,3.6,9.5,7.4,23.7,7.4c14.2,0,23.7-3.8,23.7-7.4
			C122,36.6,112.3,32.7,98.3,32.7z"/>
	</g>
	<g class="st2">
		<path class="st3" d="M54,110.2c-4,0-12-2.4-12-11.7V47.3c0-9.2,8-11.7,12-11.7c9.2,0,12,7.6,12,11.7v51.2
			C66,107.7,58,110.2,54,110.2z M53.5,38.5c-0.9,0-8.5,0.3-8.5,8.8v51.2c0,8.7,8.1,8.8,8.5,8.8c0.9,0,8.5-0.3,8.5-8.8V47.3
			C62,46.4,62,38.5,53.5,38.5z"/>
	</g>
	<g class="st2">
		<path class="st3" d="M142,110.2c-4,0-12-2.4-12-11.7V47.3c0-9.2,8-11.7,12-11.7c9.2,0,12,7.6,12,11.7v51.2
			C154,107.7,146,110.2,142,110.2z M142,38.5c-0.9,0-9,0.3-9,8.8v51.2c0,8.7,8.6,8.8,9,8.8c0.9,0,9-0.3,9-8.8V47.3
			C151,46.4,150.5,38.5,142,38.5z"/>
	</g>
	<path id="XMLID_169_" class="st1" d="M98-15.1c-0.4,0,0-0.3,0-0.7v-19.6c0-0.4-0.4-0.7,0-0.7s0,0.3,0,0.7v19.6
		C98-15.5,98.4-15.1,98-15.1z"/>
	<path class="st1" d="M98.1-34.7c-2.8,0-5-2.3-5-5c0-2.8,2.3-5,5-5c2.8,0,5,2.3,5,5C103.1-37,100.9-34.7,98.1-34.7z M98.1-43.4
		c-2,0-3.6,1.6-3.6,3.6c0,2,1.6,3.6,3.6,3.6c2,0,3.6-1.6,3.6-3.6C101.7-41.8,100.1-43.4,98.1-43.4z"/>
	<g class="st2">
		<path class="st3" d="M135.6,182.1c-8.8,0-15.7-11.9-15.7-27.1c0-15.2,6.9-27.1,15.7-27.1c8.8,0,15.7,11.9,15.7,27.1
			C151.3,170.2,144.4,182.1,135.6,182.1z M135.6,130.8c-7,0-12.9,11.1-12.9,24.2c0,13.1,5.9,24.2,12.9,24.2c7,0,12.9-11.1,12.9-24.2
			C148.5,141.9,142.6,130.8,135.6,130.8z"/>
	</g>
	<path id="XMLID_164_" class="st1" d="M139.8,155c0,4.2-1.9,7.6-4.2,7.6c-2.3,0-4.2-3.4-4.2-7.6c0-4.2,1.9-7.6,4.2-7.6
		C137.9,147.4,139.8,150.8,139.8,155z"/>
	<g class="st2">
		<path class="st3" d="M74.5,182.1c-8.8,0-15.7-11.9-15.7-27.1c0-15.2,6.9-27.1,15.7-27.1s15.7,11.9,15.7,27.1
			C90.3,170.2,83.4,182.1,74.5,182.1z M74.5,130.8c-7,0-12.9,11.1-12.9,24.2c0,13.1,5.9,24.2,12.9,24.2c7,0,12.9-11.1,12.9-24.2
			C87.4,141.9,81.5,130.8,74.5,130.8z"/>
	</g>
	<ellipse id="XMLID_161_" class="st1" cx="74.5" cy="155" rx="4.2" ry="7.6"/>
	<g class="st2">
		<g>
			<path class="st3" d="M135.6,182h-14.3c-8.8,0-15.7-11.8-15.7-27c0-15.2,6.9-27,15.7-27h14.3c0.8,0,1.4,0.6,1.4,1.4
				c0,0.8-0.6,1.4-1.4,1.4c-7,0-12.9,11.1-12.9,24.2c0,13.1,5.9,24.2,12.9,24.2c0.8,0,1.4,0.6,1.4,1.4
				C137,181.4,136.4,182,135.6,182z M122,130.8c-8,0-13.2,11.5-13.2,24.6c0,13.1,5.5,24.6,12.5,24.6h7.1c-5.1-6-8.6-13.8-8.6-24.5
				c0-10.7,3.4-20.5,8.6-24.5H122V130.8z"/>
		</g>
		<g>
			<polygon id="XMLID_158_" class="st3" points="135.6,180.7 135.6,180.7 135.6,180.7 			"/>
			<path id="XMLID_157_" class="st3" d="M135.6,182L135.6,182c-0.8,0-1.5-0.6-1.5-1.4c0-0.8,0.6-1.4,1.4-1.4c0,0,0.1,0,0.1,0
				c0.8,0,1.4,0.6,1.4,1.4C137,181.4,136.4,182,135.6,182z"/>
		</g>
	</g>
	<g class="st2">
		<g>
			<path class="st3" d="M74.5,182H60.2c-8.8,0-15.7-11.8-15.7-27c0-15.2,6.9-27,15.7-27h14.3c0.8,0,1.4,0.6,1.4,1.4
				c0,0.8-0.6,1.4-1.4,1.4c-7,0-12.9,11.1-12.9,24.2c0,13.1,5.9,24.2,12.9,24.2c0.8,0,1.4,0.6,1.4,1.4C76,181.4,75.3,182,74.5,182z
				 M61,130.8c-8,0-13.2,11.5-13.2,24.6c0,13.1,5.5,24.6,12.5,24.6h7.1c-5.1-6-8.6-13.8-8.6-24.5c0-10.7,3.4-20.5,8.6-24.5H61V130.8
				z"/>
		</g>
		<g>
			<polygon id="XMLID_154_" class="st3" points="74.5,180.7 74.6,180.7 74.6,180.7 			"/>
			<path id="XMLID_153_" class="st3" d="M74.6,182L74.6,182c-0.8,0-1.5-0.6-1.5-1.4c0-0.8,0.6-1.4,1.4-1.4s1.4,0.6,1.4,1.4
				C76,181.4,75.4,182,74.6,182z"/>
		</g>
	</g>
	<g class="st2">
		<path id="XMLID_152_" class="st3" d="M98,17c-14.6,0-26-5.2-26-12c0-4.8,5.9-9,15.3-10.9c0.8-0.2,1.5,0.3,1.7,1.1
			s-0.3,1.5-1.1,1.7c-7.8,1.6-13,4.8-13,8.1c0,4.3,9.5,9.1,23.1,9.1c13.6,0,23.1-4.8,23.1-9.1c0-3.3-5.2-6.5-13-8.1
			c-0.8-0.2-1.3-0.9-1.1-1.7c0.2-0.8,0.9-1.3,1.7-1.1C118.1-4,124,0.2,124,5C124,11.7,112.6,17,98,17z"/>
	</g>
	<g class="st2">
		<path class="st3" d="M98.2,9.8C87.3,9.8,87,5.5,87,5.1v-8.8c0-0.4,0.2-0.7,0.6-0.7s0.7,0.3,0.7,0.7c0,0.2,0.2,4.5,9.8,4.5
			c9.5,0,9.8-4.3,9.8-4.5c0-0.4,0.2-0.7,0.6-0.7c0.4,0,0.6,0.3,0.6,0.7l0,0l0,0l0,0l0,0l0,0l0,0l0,0l0,0v0c0,0,0,0,0,0V5
			c0,0.1,0.2,1.1-0.9,2.1C106.4,8.9,103.2,9.8,98.2,9.8z M88,5c0,0,0.6,3.3,10.1,3.3c9.5,0,9.9-3.3,9.9-3.3v-5.7
			c-2,1.5-4.4,2.9-10,2.9c-5.6,0-8-1.4-10-2.9V5L88,5z"/>
	</g>
	<g class="st2">
		<path class="st3" d="M98,2.2c-6.3,0-11.2-2.6-11.2-6c0-3.4,4.9-6,11.2-6c6.3,0,11.2,2.6,11.2,6C109.2-0.4,104.3,2.2,98,2.2z
			 M98-8.3c-5.9,0-9.8,2.3-9.8,4.5c0,2.5,4.5,4.5,9.8,4.5c5.3,0,9.8-2.1,9.8-4.5C107.8-5.9,103.9-8.3,98-8.3z"/>
	</g>
</g>
<g class="st0">
	<g class="st2">
		<path id="XMLID_147_" class="st3" d="M85.9,34c-0.3,0.3-0.7,1-1.1,1h-3.9l-15.1,7.5L80.9,50h35.2l15.1-7.5L116.1,35h-3.9
			c-0.3,0-0.6-0.7-0.9-0.9c-0.3-0.3,1.9-3.1,1.9-3.1h3.3c0.2,0,0.4,0.5,0.6,0.6l17.9,9.2c0.5,0.2,0.8,0.9,0.8,1.4s-0.3,1.1-0.8,1.3
			L117,52.7c-0.2,0.1-0.4,0.3-0.6,0.3H80.6c-0.2,0-0.4-0.2-0.6-0.3l-17.9-9c-0.5-0.2-0.8-0.8-0.8-1.3s0.3-1.1,0.8-1.3l17.9-9.5
			c0.2-0.1,0.4-0.7,0.6-0.7H84"/>
		<path id="XMLID_146_" class="st3" d="M83.9,32c0,0,2.2,2.2,2,2.4"/>
	</g>
	<g class="st2">
		<path class="st3" d="M134.3,107H62.6c-0.3,0-0.7-0.3-0.9-0.6l-20.3-18c-0.5-0.4-0.6-1.1-0.4-1.7l20.3-44.9
			c0.2-0.4,0.5-0.6,0.8-0.8c0.4-0.1,0.8-0.1,1.1,0.1L80.9,50h35.2l17.6-8.9c0.3-0.2,0.8-0.2,1.1-0.1c0.4,0.1,0.7,0.4,0.8,0.7
			L156,86.6c0.3,0.6,0.1,1.2-0.4,1.7l-20.3,18.1C135,106.7,134.7,107,134.3,107z M63.2,103h70.6l19.1-16.5l-19.3-42.3L117,52.7
			c-0.2,0.1-0.4,0.3-0.6,0.3H80.6c-0.2,0-0.4-0.2-0.6-0.3l-16.6-8.4L44.1,86.5L63.2,103z"/>
	</g>
	<g class="st2">
		<line id="XMLID_143_" class="st8" x1="62.6" y1="105.1" x2="80.6" y2="51.3"/>
		<path id="XMLID_142_" class="st3" d="M62.6,106.6c-0.1,0-0.3,0-0.5-0.1c-0.8-0.3-1.2-1.1-0.9-1.8l18-53.8c0.2-0.8,1.1-1.2,1.8-0.9
			c0.8,0.2,1.2,1.1,0.9,1.8l-18,53.8C63.8,106.2,63.2,106.6,62.6,106.6z"/>
	</g>
	<g class="st2">
		<line id="XMLID_141_" class="st8" x1="116.4" y1="51.3" x2="134.3" y2="105.1"/>
		<path id="XMLID_140_" class="st3" d="M134.3,106.6c-0.6,0-1.2-0.4-1.4-1L115,51.8c-0.3-0.8,0.2-1.6,0.9-1.8
			c0.8-0.3,1.6,0.2,1.8,0.9l17.9,53.8c0.2,0.8-0.2,1.6-0.9,1.8C134.6,106.6,134.5,106.6,134.3,106.6z"/>
	</g>
	<g class="st2">
		<path id="XMLID_139_" class="st3" d="M85.8,90h-4.1l6.5-17H79v-4h13v3.7L85.8,90z"/>
		<path id="XMLID_138_" class="st3" d="M94,81.5V69h13v4h-9v4c0-0.4,2.1-0.7,3.2-0.7c4.2,0,6.8,2.8,6.8,7v1c0,3.7-2.9,5.9-6.8,5.9
			c-4.5,0-7.2-2.4-7.2-6.2v0h4v0c0,1.6,1.3,2.7,3,2.7c2,0,3-1.1,3-2.7v-1.1c0-1.8-1.2-2.7-3.1-2.7c-1.3,0-2.4-0.1-2.8,1.9H94V81.5z"
			/>
		<path id="XMLID_137_" class="st3" d="M111,85.3l2.4-2.3h2.2l-2.6,2.7l3,4.3h-2.2l-2.1-3l-0.7,0.7V90h-2V80h2V85.3z"/>
		<path class="st3" d="M118,90c1,0.6,0.7,1,1.5,1c0.9,0,1.5-0.6,1.5-1.4v-0.8c0,0.5-1.3,0.8-1.9,0.8c-1.5,0-3.1-1-3.1-3.1v-0.8
			c0-2.1,1.6-3.1,3.1-3.1c0.6,0,1.9,0.3,1.9,0.8V83h2v6.3c0,2-1.3,3.3-3.4,3.3c-1.8,0-3.1-0.6-3.3-2.6L118,90L118,90z M118,86.4
			c0,1,0.8,1.4,1.5,1.4c0.7,0,1.5-0.4,1.5-1.4v-0.6c0-1-0.8-1.4-1.5-1.4c-0.7,0-1.5,0.4-1.5,1.4V86.4z"/>
	</g>
	<g class="st2">
		<path class="st3" d="M101.8,42h-6.6c-0.4,0-1.2,0-1.2-0.4v-8c0-0.4,0.8-0.6,1.2-0.6h6.6c0.4,0,1.2,0.2,1.2,0.6v8
			C103,42,102.2,42,101.8,42z M96,41h5v-6h-5V41z"/>
	</g>
	<g class="st2">
		<path id="XMLID_132_" class="st3" d="M98.5-4C98.1-4,98-4.3,98-4.7v-19.6c0-0.4,0.1-0.7,0.5-0.7s0.5,0.3,0.5,0.7v19.6
			C99-4.3,98.9-4,98.5-4z"/>
		<path class="st3" d="M98.5-23.6c-2.8,0-5-2.3-5-5c0-2.8,2.3-5,5-5c2.8,0,5,2.3,5,5C103.5-25.9,101.3-23.6,98.5-23.6z M98.5-32.3
			c-2,0-3.6,1.6-3.6,3.6c0,2,1.6,3.6,3.6,3.6c2,0,3.6-1.6,3.6-3.6C102.1-30.7,100.5-32.3,98.5-32.3z"/>
	</g>
	<g class="st2">
		<path class="st3" d="M19.5,107.5c-4,0-11.5-2.4-11.5-11.7V44.7C8,35.4,15.5,33,19.5,33C28.7,33,31,40.6,31,44.7v51.2
			C31,105.1,23.5,107.5,19.5,107.5z M19.5,35.9c-0.9,0-8.5,0.3-8.5,8.8v51.2c0,8.7,8.1,8.8,8.5,8.8c0.9,0,8.5-0.3,8.5-8.8V44.7
			C28,43.8,28,35.9,19.5,35.9z"/>
	</g>
	<g class="st2">
		<path class="st3" d="M176.5,107.2c-4,0-11.5-2.4-11.5-11.7V44.3c0-9.2,7.5-11.7,11.5-11.7c9.2,0,11.5,7.6,11.5,11.7v51.2
			C188,104.8,180.5,107.2,176.5,107.2z M176.5,35.5c-0.9,0-8.5,0.3-8.5,8.8v51.2c0,8.7,8.1,8.8,8.5,8.8c0.9,0,8.5-0.3,8.5-8.8V44.3
			C185,43.5,185,35.5,176.5,35.5z"/>
	</g>
	<g class="st2">
		<path class="st3" d="M135.6,171c-8.8,0-15.7-11.9-15.7-27.1c0-15.2,6.9-27.1,15.7-27.1s15.7,11.9,15.7,27.1
			C151.3,159.1,144.4,171,135.6,171z M135.6,119.7c-7,0-12.9,11.1-12.9,24.2c0,13.1,5.9,24.2,12.9,24.2c7,0,12.9-11.1,12.9-24.2
			C148.4,130.8,142.6,119.7,135.6,119.7z"/>
	</g>
	<ellipse id="XMLID_123_" class="st1" cx="135.6" cy="143.9" rx="4.2" ry="7.6"/>
	<g class="st2">
		<path class="st3" d="M74.5,171c-8.8,0-15.7-11.9-15.7-27.1c0-15.2,6.9-27.1,15.7-27.1c8.8,0,15.7,11.9,15.7,27.1
			C90.2,159.1,83.3,171,74.5,171z M74.5,119.7c-7,0-12.9,11.1-12.9,24.2c0,13.1,5.9,24.2,12.9,24.2c7,0,12.9-11.1,12.9-24.2
			C87.4,130.8,81.5,119.7,74.5,119.7z"/>
	</g>
	<ellipse id="XMLID_120_" class="st1" cx="74.5" cy="143.9" rx="4.2" ry="7.6"/>
	<g class="st2">
		<g>
			<path class="st3" d="M135.6,171h-14.3c-8.8,0-15.7-11.8-15.7-27c0-15.2,6.9-27,15.7-27h14.3c0.8,0,1.4,0.6,1.4,1.4
				c0,0.8-0.6,1.4-1.4,1.4c-7,0-12.9,11.1-12.9,24.2c0,13.1,5.9,24.2,12.9,24.2c0.8,0,1.4,0.6,1.4,1.4
				C137,170.4,136.4,171,135.6,171z M122,119.8c-8,0-13.2,11-13.2,24.1c0,13.1,5.5,24.1,12.5,24.1h7.1c-5.1-4-8.6-13.3-8.6-24
				c0-10.7,3.4-20,8.6-24H122V119.8z"/>
		</g>
		<g>
			<polygon id="XMLID_117_" class="st3" points="135.6,169.6 135.6,169.6 135.6,169.6 			"/>
			<path id="XMLID_116_" class="st3" d="M135.6,171L135.6,171c-0.8,0-1.5-0.6-1.5-1.4c0-0.7,0.5-1.3,1.2-1.4
				c0.9-0.2,1.7,0.5,1.7,1.4C137,170.4,136.4,171,135.6,171z"/>
		</g>
	</g>
	<g class="st2">
		<g>
			<path class="st3" d="M74.5,171H60.2c-8.8,0-15.7-11.8-15.7-27c0-15.2,6.9-27,15.7-27h14.3c0.8,0,1.4,0.6,1.4,1.4
				c0,0.8-0.6,1.4-1.4,1.4c-7,0-12.9,11.1-12.9,24.2c0,13.1,5.9,24.2,12.9,24.2c0.8,0,1.4,0.6,1.4,1.4C75.9,170.4,75.3,171,74.5,171
				z M61,119.8c-8,0-13.3,11-13.3,24.1c0,13.1,5.5,24.1,12.5,24.1h7.1c-5.1-4-8.6-13.3-8.6-24c0-10.7,3.4-20,8.6-24H61V119.8z"/>
		</g>
		<g>
			<polygon id="XMLID_113_" class="st3" points="74.5,169.6 74.6,169.6 74.6,169.6 			"/>
			<path id="XMLID_112_" class="st3" d="M74.6,171L74.6,171c-0.8,0-1.5-0.6-1.5-1.4c0-0.7,0.5-1.3,1.2-1.4c0.9-0.2,1.7,0.5,1.7,1.4
				C76,170.4,75.3,171,74.6,171z"/>
		</g>
	</g>
	<g class="st2">
		<path class="st3" d="M101.8,40.1c-0.2,0-0.4-0.1-0.5-0.2c-0.2-0.1-0.3-0.3-0.3-0.6v-4.8c0-0.3,0.3-0.6,0.6-0.7
			c5.5-1.4,9.4-6.4,9.4-12.1c0-6.9-5.6-12.5-12.5-12.5C91.6,9.3,86,14.9,86,21.8c0,5.7,3.9,10.6,9.4,12.1c0.3,0.1,0.6,0.4,0.6,0.7
			v4.8c0,0.2-0.1,0.4-0.3,0.6c-0.2,0.1-0.4,0.2-0.6,0.2c-8.8-1.6-15.2-9.3-15.2-18.3c0-10.3,8.4-18.7,18.6-18.7s18.6,8.4,18.6,18.7
			c0,9-6.4,16.7-15.2,18.3C101.9,40.1,101.8,40.1,101.8,40.1z M103,35.1v3.4c7-1.8,12.9-8.7,12.9-16.7c0-9.5-7.8-17.2-17.3-17.2
			s-17.5,7.7-17.5,17.2c0,8,5.9,14.9,12.9,16.7v-3.4c-6-1.8-9.7-7.2-9.7-13.3c0-7.7,6.4-13.9,14-13.9s14.2,6.3,14.2,13.9
			C112.6,28,109,33.4,103,35.1z"/>
	</g>
</g>
<g class="st0">
	<g class="st2">
		<path class="st3" d="M110,52v17h3v3h-3v7h-2v-7H95v-2.5L107.7,52H110z M108,69V55.4L97.3,69H108z"/>
		<path id="XMLID_107_" class="st3" d="M118.9,65c1.2-2,3.4-2.5,5.3-2.5c3.6,0,7.8,1.7,7.8,7.5v1.7c0,5.8-4.4,7.8-8,7.8
			c-3.6,0-8-2-8-7.8V72h3v-0.3c0,3.6,1.7,5.8,5,5.8c3.3,0,5-2.2,5-5.8V70c0-3.6-2-5.8-5.2-5.8c-2.2,0-3.6,1.8-4.5,2.8H117V52h14v2
			h-12L118.9,65L118.9,65z"/>
		<path class="st3" d="M141.9,51.9c3.3,0,6,2.7,6,6c0,3.3-2.7,6-6,6s-6-2.7-6-6C135.9,54.6,138.6,51.9,141.9,51.9z M141.9,62.2
			c2.4,0,4.3-1.9,4.3-4.3c0-2.4-1.9-4.3-4.3-4.3c-2.4,0-4.3,1.9-4.3,4.3C137.6,60.3,139.5,62.2,141.9,62.2z"/>
	</g>
	<path id="XMLID_104_" class="st1" d="M160.3,101H33c-0.6,0-1.1-0.3-1.3-0.9c-0.2-0.5-0.1-1.1,0.3-1.6l90-90c0.6-0.6,1.5-0.6,2,0
		c0.6,0.6,0.6,0.9,0,1.5L36.4,97h123.9c0.8,0,1.4,1.2,1.4,2C161.7,99.8,161.1,101,160.3,101z"/>
	<path id="XMLID_103_" class="st1" d="M56.9,100.3c-0.4,0-0.7-0.3-0.7-0.7c0-6.2-2.4-12-6.8-16.4c-0.3-0.3-0.3-0.7,0-1
		c0.3-0.3,0.7-0.3,1,0c4.6,4.7,7.2,10.8,7.2,17.4C57.6,100,57.2,100.3,56.9,100.3z"/>
	<g class="st2">
		<path id="XMLID_102_" class="st3" d="M99,2.8c-0.4,0-1-0.3-1-0.7v-19.6c0-0.4,0.6-0.7,1-0.7s1,0.3,1,0.7V2.1
			C100,2.5,99.4,2.8,99,2.8z"/>
		<path class="st3" d="M99.3-16.8c-2.8,0-5-2.3-5-5c0-2.8,2.3-5,5-5c2.8,0,5,2.3,5,5C104.3-19.1,102-16.8,99.3-16.8z M99.3-25.5
			c-2,0-3.6,1.6-3.6,3.6s1.6,3.6,3.6,3.6c2,0,3.6-1.6,3.6-3.6C102.9-23.9,101.3-25.5,99.3-25.5z"/>
	</g>
	<g class="st2">
		<path class="st3" d="M14,104.7c-4,0-12-2.4-12-11.7V41.9c0-9.2,8-11.7,12-11.7c9.2,0,12,7.6,12,11.7V93
			C26,102.3,18,104.7,14,104.7z M14.5,33.1c-0.9,0-8.5,0.3-8.5,8.8V93c0,8.7,8.1,8.8,8.5,8.8c0.9,0,8.5-0.3,8.5-8.8V41.9
			C23,41,23,33.1,14.5,33.1z"/>
	</g>
	<g class="st2">
		<path class="st3" d="M181,104.7c-4,0-12-2.4-12-11.7V41.9c0-9.2,8-11.7,12-11.7c9.2,0,12,7.6,12,11.7V93
			C193,102.3,185,104.7,181,104.7z M181.5,33.1c-0.9,0-8.5,0.3-8.5,8.8V93c0,8.7,8.1,8.8,8.5,8.8c0.9,0,8.5-0.3,8.5-8.8V41.9
			C190,41,190,33.1,181.5,33.1z"/>
	</g>
	<g class="st2">
		<path class="st3" d="M136.9,164.2c-8.8,0-15.7-11.9-15.7-27.1c0-15.2,6.9-27.1,15.7-27.1s15.7,11.9,15.7,27.1
			C152.7,152.3,145.8,164.2,136.9,164.2z M136.9,112.9c-7,0-12.9,11.1-12.9,24.2c0,13.1,5.9,24.2,12.9,24.2s12.9-11.1,12.9-24.2
			C149.8,124,143.9,112.9,136.9,112.9z"/>
	</g>
	<ellipse id="XMLID_93_" class="st1" cx="136.9" cy="137.1" rx="4.2" ry="7.6"/>
	<g class="st2">
		<path class="st3" d="M75.9,164.2c-8.8,0-15.7-11.9-15.7-27.1c0-15.2,6.9-27.1,15.7-27.1c8.8,0,15.7,11.9,15.7,27.1
			C91.6,152.3,84.7,164.2,75.9,164.2z M75.9,112.9c-7,0-12.9,11.1-12.9,24.2c0,13.1,5.9,24.2,12.9,24.2c7,0,12.9-11.1,12.9-24.2
			C88.7,124,82.9,112.9,75.9,112.9z"/>
	</g>
	<ellipse id="XMLID_90_" class="st1" cx="75.9" cy="137.1" rx="4.2" ry="7.6"/>
	<g class="st2">
		<g>
			<path class="st3" d="M136.9,164h-14.3c-8.8,0-15.7-11.8-15.7-27c0-15.2,6.9-27,15.7-27h14.3c0.8,0,1.4,0.7,1.4,1.5
				c0,0.8-0.6,1.4-1.4,1.4c-7,0-12.9,11.1-12.9,24.2c0,13.1,5.9,24.2,12.9,24.2c0.8,0,1.4,0.5,1.4,1.3
				C138.4,163.5,137.7,164,136.9,164z M123,113.1c-7,0-13,11.4-13,24.5c0,13.1,5.7,24.5,12.7,24.5h7.1c-5.1-5-8.6-13.8-8.6-24.5
				c0-10.7,3.4-19.5,8.6-24.5L123,113.1L123,113.1z"/>
		</g>
		<g>
			<polygon id="XMLID_87_" class="st3" points="136.9,162.8 137,162.8 137,162.8 			"/>
			<path id="XMLID_86_" class="st3" d="M137,164L137,164c-0.8,0-1.5-0.5-1.5-1.3c0-0.8,0.6-1.4,1.4-1.4s1.5,0.6,1.5,1.4
				C138.4,163.4,137.8,164,137,164z"/>
		</g>
	</g>
	<g class="st2">
		<g>
			<polygon id="XMLID_85_" class="st3" points="75.9,162.8 75.9,162.8 75.9,162.8 			"/>
			<path id="XMLID_84_" class="st3" d="M75.9,164L75.9,164c-0.8,0-1.5-0.5-1.5-1.3c0-0.8,0.6-1.4,1.4-1.4s1.5,0.6,1.5,1.4
				C77.3,163.4,76.7,164,75.9,164z"/>
		</g>
		<g>
			<path class="st3" d="M75.9,164H61.6c-8.8,0-15.7-11.8-15.7-27c0-15.2,6.9-27,15.7-27h14.3c0.8,0,1.4,0.7,1.4,1.5
				c0,0.8-0.6,1.4-1.4,1.4c-7,0-12.9,11.1-12.9,24.2c0,13.1,5.9,24.2,12.9,24.2c0.8,0,1.4,0.5,1.4,1.3C77.3,163.5,76.7,164,75.9,164
				z M62,113.1c-7,0-13.1,11.4-13.1,24.5c0,13.1,5.7,24.5,12.7,24.5h7.1c-5.1-5-8.6-13.8-8.6-24.5c0-10.7,3.4-19.5,8.6-24.5
				L62,113.1L62,113.1z"/>
		</g>
	</g>
</g>
<g class="st0">
	<path id="XMLID_81_" class="st1" d="M163,102H35.7c-0.8,0-1.4-1.2-1.4-2c0-0.8,0.6-2,1.4-2h123.9L71.9,10.7c-0.6-0.6-0.6-1.3,0-1.9
		c0.6-0.6,1.5-0.5,2,0.1L164,99c0.4,0.4,0.5,1.3,0.3,1.8C164.1,101.4,163.6,102,163,102z"/>
	<path id="XMLID_80_" class="st1" d="M139.1,100.8c-0.4,0-0.7-0.3-0.7-0.7c0-6.6,2.6-12.7,7.2-17.4c0.3-0.3,0.7-0.3,1,0
		c0.3,0.3,0.3,0.7,0,1c-4.4,4.4-6.8,10.2-6.8,16.4C139.8,100.4,139.5,100.8,139.1,100.8z"/>
	<g class="st2">
		<path id="XMLID_79_" class="st3" d="M97,3.2c-0.4,0-1-0.3-1-0.7v-19.6c0-0.4,0.6-0.7,1-0.7s1,0.3,1,0.7V2.5
			C98,2.9,97.4,3.2,97,3.2z"/>
		<path class="st3" d="M96.7-16.4c-2.8,0-5-2.3-5-5c0-2.8,2.3-5,5-5c2.8,0,5,2.3,5,5C101.7-18.6,99.5-16.4,96.7-16.4z M96.7-25
			c-2,0-3.6,1.6-3.6,3.6c0,2,1.6,3.6,3.6,3.6c2,0,3.6-1.6,3.6-3.6C100.3-23.4,98.7-25,96.7-25z"/>
	</g>
	<g class="st2">
		<path class="st3" d="M181,105.2c-4,0-12-2.4-12-11.7V42.3c0-4,2.8-11.7,12-11.7c4,0,12,2.4,12,11.7v51.2
			C193,102.8,185,105.2,181,105.2z M181.5,33.5c-8.7,0-8.5,8.4-8.5,8.8v51.2c0,8.7,8.1,8.8,8.5,8.8c0.9,0,8.5-0.3,8.5-8.8V42.3
			C190,33.6,181.9,33.5,181.5,33.5z"/>
	</g>
	<g class="st2">
		<path class="st3" d="M14,105.2c-4,0-12-2.4-12-11.7V42.3c0-4,2.8-11.7,12-11.7c4,0,12,2.4,12,11.7v51.2
			C26,102.8,18,105.2,14,105.2z M14.5,33.5C5.8,33.5,6,42,6,42.3v51.2c0,8.5,7.6,8.8,8.5,8.8c0.9,0,8.5-0.3,8.5-8.8V42.3
			C23,33.6,14.9,33.5,14.5,33.5z"/>
	</g>
	<g class="st2">
		<path class="st3" d="M131.8,163.7c-8.8,0-15.7-11.9-15.7-27.1c0-15.2,6.9-27.1,15.7-27.1s15.7,11.9,15.7,27.1
			C147.5,151.8,140.6,163.7,131.8,163.7z M131.8,112.5c-7,0-12.9,11.1-12.9,24.2c0,13.1,5.9,24.2,12.9,24.2c7,0,12.9-11.1,12.9-24.2
			S138.8,112.5,131.8,112.5z"/>
	</g>
	<ellipse id="XMLID_70_" class="st1" cx="131.8" cy="136.7" rx="4.2" ry="7.6"/>
	<g class="st2">
		<path class="st3" d="M70.7,163.7c-8.8,0-15.7-11.9-15.7-27.1c0-15.2,6.9-27.1,15.7-27.1c8.8,0,15.7,11.9,15.7,27.1
			C86.5,151.8,79.6,163.7,70.7,163.7z M70.7,112.5c-7,0-12.9,11.1-12.9,24.2c0,13.1,5.9,24.2,12.9,24.2c7,0,12.9-11.1,12.9-24.2
			C83.6,123.5,77.7,112.5,70.7,112.5z"/>
	</g>
	<ellipse id="XMLID_67_" class="st1" cx="70.7" cy="136.7" rx="4.2" ry="7.6"/>
	<g class="st2">
		<path class="st3" d="M63,52v18h4v2h-4v7h-1v-7H49v-1.9L61.2,52H63z M62,70V55.9L50.9,70H62z"/>
		<path id="XMLID_64_" class="st3" d="M72.4,65c1.2-2,3.6-2.2,5.6-2.2c3.6,0,8,2,8,7.8v1.7c0,5.8-4.4,7.8-8,7.8c-3.6,0-8-2-8-7.8V72
			h3v0.3c0,3.6,1.7,5.8,5,5.8s5-2.2,5-5.8v-1.7c0-3.6-2.2-6.1-5.5-6.1c-2.2,0-3.8,1.5-4.8,2.5H70V52h14v3H73v10H72.4z"/>
		<path class="st3" d="M95.5,52.4c3.3,0,6,2.7,6,6c0,3.3-2.7,6-6,6c-3.3,0-6-2.7-6-6C89.4,55.1,92.1,52.4,95.5,52.4z M95.5,62.8
			c2.4,0,4.3-1.9,4.3-4.3s-1.9-4.3-4.3-4.3c-2.4,0-4.3,1.9-4.3,4.3S93.1,62.8,95.5,62.8z"/>
	</g>
	<g class="st2">
		<g>
			<path class="st3" d="M131.8,164h-14.3c-8.8,0-15.7-12.3-15.7-27.5c0-15.2,6.9-27.5,15.7-27.5h14.3c0.8,0,1.4,0.9,1.4,1.7
				c0,0.8-0.6,1.6-1.4,1.6c-7,0-12.9,11.2-12.9,24.3c0,13.1,5.9,24.2,12.9,24.2c0.8,0,1.4,0.8,1.4,1.6
				C133.2,163.2,132.6,164,131.8,164z M118,112.5c-8,0-13.1,11.1-13.1,24.3c0,13.1,5.6,24.3,12.6,24.3h7.1c-5.1-5-8.6-13.3-8.6-24
				c0-10.7,3.4-20,8.6-24H118V112.5z"/>
		</g>
		<g>
			<polygon id="XMLID_59_" class="st3" points="131.8,162.3 131.8,162.3 131.8,162.3 			"/>
			<path id="XMLID_58_" class="st3" d="M131.8,164L131.8,164c-0.8,0-1.5-0.8-1.5-1.6c0-0.8,0.6-1.5,1.4-1.5c0.8,0,1.5,0.7,1.5,1.5
				C133.3,163.3,132.6,164,131.8,164z"/>
		</g>
	</g>
	<g class="st2">
		<g>
			<polygon id="XMLID_57_" class="st3" points="70.7,162.3 70.8,162.3 70.8,162.3 			"/>
			<path id="XMLID_56_" class="st3" d="M70.8,164L70.8,164c-0.8,0-1.5-0.8-1.5-1.6c0-0.8,0.6-1.5,1.4-1.5s1.5,0.7,1.5,1.5
				C72.2,163.3,71.6,164,70.8,164z"/>
		</g>
		<g>
			<path class="st3" d="M70.7,164H56.4c-8.8,0-15.7-12.3-15.7-27.5c0-15.2,6.9-27.5,15.7-27.5h14.3c0.8,0,1.4,0.9,1.4,1.7
				c0,0.8-0.6,1.6-1.4,1.6c-7,0-12.9,11.2-12.9,24.3c0,13.1,5.9,24.2,12.9,24.2c0.8,0,1.4,0.8,1.4,1.6C72.2,163.2,71.5,164,70.7,164
				z M56,112.5c-6,0-12.6,11.1-12.6,24.3c0,13.1,6.1,24.3,13.1,24.3h7.1c-5.1-5-8.6-13.3-8.6-24c0-10.7,3.4-20,8.6-24H56V112.5z"/>
		</g>
	</g>
</g>
<g class="st0">
	<path class="st1" d="M98.6,155h-1.3c-12.2,0-22.3-9.8-22.3-22.1v-1.3c0-5.7,3-11,6-15.1V-0.9c0-9.3,7.7-16.9,17-16.9
		c9.3,0,17,7.6,17,16.9v117.5c4,4.1,6,9.5,6,15.1v1.3C121,145.2,110.9,155,98.6,155z M98-15c-7.7,0-14,6.3-14,14v118
		c0,0.4-0.2,0.7-0.4,1c-3.6,3.6-5.6,8.4-5.6,13.5v1.3c0,10.7,8.7,19.1,19.3,19.1h1.3c10.7,0,19.4-8.4,19.4-19.1v-1.3
		c0-5.1-2-9.9-5.6-13.5c-0.3-0.3-0.4-0.6-0.4-1v-118C112-8.7,105.7-15,98-15z"/>
	<path id="XMLID_51_" class="st1" d="M113.4,96H83.7c-0.8,0-1.4-1.2-1.4-2s0.6-2,1.4-2h29.7c0.8,0,1.4,1.2,1.4,2S114.2,96,113.4,96z
		"/>
	<path id="XMLID_50_" class="st1" d="M112.2,110h-10.4c-0.4,0-0.7-0.1-0.7-0.5s0.3-0.5,0.7-0.5h10.4c0.4,0,0.7,0.1,0.7,0.5
		S112.6,110,112.2,110z"/>
	<path id="XMLID_49_" class="st1" d="M112.2,95H95.8c-0.4,0-0.7-0.6-0.7-1s0.3-1,0.7-1h16.4c0.4,0,0.7,0.6,0.7,1S112.6,95,112.2,95z
		"/>
	<path id="XMLID_48_" class="st1" d="M112.2,80h-10.4c-0.4,0-0.7-0.1-0.7-0.5s0.3-0.5,0.7-0.5h10.4c0.4,0,0.7,0.1,0.7,0.5
		S112.6,80,112.2,80z"/>
	<path id="XMLID_47_" class="st1" d="M112.2,64H95.5c-0.4,0-0.7-0.6-0.7-1s0.3-1,0.7-1h16.6c0.4,0,0.7,0.6,0.7,1S112.6,64,112.2,64z
		"/>
	<path id="XMLID_46_" class="st1" d="M112.2,47h-10.6c-0.4,0-0.7-0.1-0.7-0.5s0.3-0.5,0.7-0.5h10.6c0.4,0,0.7,0.1,0.7,0.5
		S112.6,47,112.2,47z"/>
	<path id="XMLID_45_" class="st1" d="M112.2,31H95.5c-0.4,0-0.7-0.1-0.7-0.5s0.3-0.5,0.7-0.5h16.6c0.4,0,0.7,0.1,0.7,0.5
		S112.6,31,112.2,31z"/>
	<path id="XMLID_44_" class="st1" d="M113.4,15h-12.2c-0.4,0-0.7-0.1-0.7-0.5s0.3-0.5,0.7-0.5h12.2c0.4,0,0.7,0.1,0.7,0.5
		S113.8,15,113.4,15z"/>
	<path id="XMLID_43_" class="st1" d="M112.2,0H95.5c-0.4,0-0.7-0.6-0.7-1s0.3-1,0.7-1h16.6c0.4,0,0.7,0.6,0.7,1S112.6,0,112.2,0z"/>
</g>
<g class="st0">
	<g class="st2">
		<path class="st3" d="M51.8,31.1c-0.8,0-1.4-0.5-1.4-1.3c0-0.7,0.5-1.3,1.2-1.5c0.3-0.2,3.4-2.9,3.4-21.2s-3-21-3.4-21.2
			c-0.1,0-0.3-0.1-0.4-0.1c-0.4-0.2-0.6-0.5-0.7-0.9c0-0.2-0.1-0.3-0.1-0.5c0-0.8,0.7-1.3,1.4-1.3l0,0c0,0,0.1,0,0.2,0l0,0l0,0
			c0,0,0,0,0.1,0l113,13.6c0.1,0,5.8,0.1,5.8,10.5c0,10.4-5.7,10.4-6,10.4L52.1,31c0,0,0,0,0,0C52,31,51.9,31.1,51.8,31.1z
			 M55.2-13.6c1.4,3.2,2.6,9.3,2.6,20.8s-1.2,17.6-2.6,20.8l109.5-13.1c1.2-0.1,3.3-1.8,3.3-7.6s-2.1-7.5-3.1-7.6L55.2-13.6z"/>
	</g>
	<g class="st2">
		<path id="XMLID_40_" class="st3" d="M124.2,21.5c-0.2,0-0.4-0.1-0.5-0.2c-0.3-0.3-0.3-0.7,0-1c0,0,4.3-4.5,4.3-13.1
			s-4.3-13-4.3-13.1c-0.3-0.3-0.3-0.7,0-1c0.3-0.3,0.7-0.3,1,0c0.2,0.2,4.7,4.8,4.7,14.1s-4.5,13.9-4.7,14.1
			C124.6,21.4,124.4,21.5,124.2,21.5z"/>
	</g>
	<g class="st2">
		<path id="XMLID_39_" class="st3" d="M88,26c-0.2,0-0.4-0.1-0.5-0.2c-0.3-0.3-0.3-0.7,0-1c0,0,4.3-4.6,4.3-17.6
			c0-13-4.3-17.5-4.3-17.6c-0.3-0.3-0.3-0.7,0-1c0.3-0.3,0.7-0.3,1,0c0.2,0.2,4.7,4.9,4.7,18.6s-4.5,18.4-4.7,18.6
			C88.4,25.9,88.2,26,88,26z"/>
	</g>
	<g class="st2">
		<path id="XMLID_38_" class="st3" d="M51.8,31.2c-0.4,0-0.7-0.1-1-0.4L28.2,8.2c-0.6-0.6-0.6-1.5,0-2l22.6-22.6
			c0.6-0.6,1.5-0.6,2,0c0.6,0.6,0.6,1.5,0,2L31.2,7.2l21.6,21.6c0.6,0.6,0.6,1.5,0,2C52.6,31.1,52.2,31.2,51.8,31.2z"/>
	</g>
	<path id="XMLID_37_" class="st1" d="M29,151.9c0,1.3-0.5,2.3-1.5,2.3l0,0c-1,0-1.5-1-1.5-2.3v-165c0-1.3,0.5-2.3,1.5-2.3l0,0
		c1,0,1.5,1,1.5,2.3V151.9z"/>
</g>
<g class="st0">
	<g class="st2">
		<g>
			<path class="st3" d="M160.4,89H35.8c-4.8,0-9.8-3.6-9.8-8.4V8.1C26,3.3,30.9,0,35.8,0h124.7c4.8,0,8.6,3.3,8.6,8.1v72.5
				C169,85.4,165.3,89,160.4,89z M35.8,2C32.5,2,30,4.8,30,8.1v72.5c0,3.2,2.5,6.4,5.8,6.4h124.7c3.2,0,5.6-3.2,5.6-6.4V8.1
				c0-3.2-2.3-6.1-5.6-6.1H35.8z"/>
		</g>
		<path class="st3" d="M161.2,82H35c-0.4,0-1-0.6-1-1V7.7C34,7.3,34.6,7,35,7h126.2c0.4,0,0.8,0.3,0.8,0.7V81
			C162,81.4,161.6,82,161.2,82z M35.7,80H160V8H36v72.3L35.7,80z"/>
	</g>
	<g class="st2">
		<path class="st3" d="M185,132H10.9c-4.6,0-7.8-1.3-8.8-3.2c-0.3-0.6-0.7-1.9,0.4-3.3L28,91.6C29.9,89,34.7,87,39,87h117.9
			c4.3,0,9.1,2,11.1,4.5l25.4,33.9c1.1,1.4,0.7,2.8,0.4,3.4C192.4,131.5,187.2,132,185,132z M39,89.8c-3,0-7.4,1.6-8.8,3.4
			L4.9,127.1c-0.1,0.1-0.1-0.2-0.1-0.1c0.1,0.3,1.9,1,6.2,1H185c4.3,0,6.1-0.7,6.2-1.1l0,0c0,0,0,0.1-0.1,0l-25.4-33.7
			c-1.4-1.9-5.4-3.2-8.8-3.2H39V89.8z"/>
	</g>
	<g class="st2">
		<path id="XMLID_30_" class="st3" d="M114.7,72H81.5c-0.4,0-0.7-0.1-0.7-0.5s0.3-0.5,0.7-0.5h33.2c0.4,0,0.7,0.1,0.7,0.5
			S115.1,72,114.7,72z"/>
		<g>
			<path id="XMLID_29_" class="st3" d="M98,67.1c-0.4,0,0-0.3,0-0.7V53.9c0-0.4-0.4-0.7,0-0.7s0,0.3,0,0.7v12.4
				C98,66.7,98.4,67.1,98,67.1z"/>
			<path id="XMLID_28_" class="st3" d="M97.8,67.1c-0.2,0-0.4-0.1-0.5-0.2l-4.1-4.1c-0.3-0.3-0.3-0.7,0-1c0.3-0.3,0.7-0.3,1,0
				l3.6,3.6l3.6-3.6c0.3-0.3,0.7-0.3,1,0c0.3,0.3,0.3,0.7,0,1l-4.1,4.1C98.2,67,98,67.1,97.8,67.1z"/>
		</g>
	</g>
	<path class="st1" d="M176.6,116H20.2c-0.3,0-0.5,0.1-0.6-0.1c-0.1-0.2-0.1-0.4,0-0.6l14.3-20.9c0.1-0.2,0.4-0.3,0.6-0.3h127.9
		c0.2,0,0.5,0.2,0.6,0.4l14.2,21c0.1,0.2,0.2,0.3,0,0.5C177.1,116.1,176.9,116,176.6,116z M21.6,115h153.7L162,96H34.9L21.6,115z"/>
	<g class="st2">
		<path id="XMLID_25_" class="st3" d="M108.5,51.5c-0.4,0-0.8-0.2-1.1-0.5c-0.1-0.1-3.3-3.6-9.6-3.6c-6.3,0-9.4,3.5-9.6,3.6
			c-0.5,0.6-1.4,0.7-2,0.1c-0.6-0.5-0.7-1.4-0.1-2c0.2-0.2,4.1-4.6,11.7-4.6c7.7,0,11.6,4.4,11.7,4.6c0.5,0.6,0.5,1.5-0.1,2
			C109.2,51.3,108.8,51.5,108.5,51.5z"/>
		<path id="XMLID_24_" class="st3" d="M112.9,46.1c-0.4,0-0.8-0.2-1.1-0.5c-0.1-0.1-4.8-5.1-14-5.1s-13.9,5-14,5.1
			c-0.5,0.6-1.4,0.6-2,0.1c-0.6-0.5-0.6-1.4-0.1-2c0.2-0.2,5.6-6.1,16.2-6.1c10.6,0,15.9,5.8,16.2,6.1c0.5,0.6,0.5,1.5-0.1,2
			C113.6,46,113.3,46.1,112.9,46.1z"/>
		<path id="XMLID_23_" class="st3" d="M117.4,40.8c-0.4,0-0.8-0.2-1.1-0.5c-0.1-0.1-6.3-6.6-18.5-6.6s-18.4,6.5-18.5,6.6
			c-0.5,0.6-1.4,0.6-2,0.1c-0.6-0.5-0.6-1.4-0.1-2c0.3-0.3,7.1-7.5,20.6-7.5s20.3,7.2,20.6,7.5c0.5,0.6,0.5,1.5-0.1,2
			C118.1,40.7,117.7,40.8,117.4,40.8z"/>
		<path id="XMLID_22_" class="st3" d="M121.8,35.5c-0.4,0-0.8-0.2-1-0.5c-0.1-0.1-7.8-8.1-22.9-8.1S75,34.9,74.9,35
			c-0.5,0.6-1.4,0.6-2,0.1c-0.6-0.5-0.6-1.4-0.1-2c0.3-0.4,8.6-9,25-9c16.4,0,24.7,8.6,25,9c0.5,0.6,0.5,1.5-0.1,2
			C122.5,35.4,122.2,35.5,121.8,35.5z"/>
		<path id="XMLID_21_" class="st3" d="M126.2,30.2c-0.4,0-0.8-0.1-1-0.4c-0.1-0.1-9.3-9.6-27.4-9.6s-27.3,9.5-27.4,9.6
			c-0.5,0.6-1.5,0.6-2,0.1c-0.6-0.5-0.6-1.5-0.1-2c0.4-0.4,10.1-10.5,29.5-10.5s29.1,10,29.5,10.5c0.5,0.6,0.5,1.5-0.1,2
			C127,30,126.6,30.2,126.2,30.2z"/>
	</g>
	<g class="st2">
		<path class="st3" d="M185,139H10.9c-2.3,0-6.5-0.8-8.3-2.8c-0.6-0.7-0.9-1.7-0.8-2.6l0.1-5.9c0-0.1,0.1-0.4,0.1-0.6v-0.1
			c0-1.2,1.8-1.9,2.6-0.9c0.3,0.3,0.4,0.8,0.4,1.2v0.1c0,0.4,1.7,0.6,5.9,0.6H185c4.1,0,6-0.2,6-0.6v-0.1c0-0.4,0.2-0.8,0.4-1.1
			c0.8-0.9,2.5-0.3,2.6,0.9c0,0.2,0,0.5,0,0.7v5.8c0,0.7-0.1,2-0.7,2.7C191.5,138.2,187.3,139,185,139z M5,130.7v2.8
			c0,0.5,1.6,1.5,5.9,1.5H185c4.3,0,6.1-1,6.2-1.4l0-2.7c-1.5,0.6-3.6,1.1-6.2,1.1H10.9C8.4,132,6,131.3,5,130.7z"/>
	</g>
</g>
<g>
	<g>
		<g>
			<path class="st3" d="M160.4,89H35.8c-4.8,0-9.8-3.6-9.8-8.4V8.1C26,3.3,30.9,0,35.8,0h124.7c4.8,0,8.6,3.3,8.6,8.1v72.5
				C169,85.4,165.3,89,160.4,89z M35.8,2C32.5,2,30,4.8,30,8.1v72.5c0,3.2,2.5,6.4,5.8,6.4h124.7c3.2,0,5.6-3.2,5.6-6.4V8.1
				c0-3.2-2.3-6.1-5.6-6.1H35.8z"/>
		</g>
		<path class="st3" d="M161.2,82H35c-0.4,0-1-0.6-1-1V7.7C34,7.3,34.6,7,35,7h126.2c0.4,0,0.8,0.3,0.8,0.7V81
			C162,81.4,161.6,82,161.2,82z M35.7,80H160V8H36v72.3L35.7,80z"/>
	</g>
	<g>
		<path class="st3" d="M185,132H10.9c-4.6,0-7.8-1.3-8.8-3.2c-0.3-0.6-0.7-1.9,0.4-3.3L28,91.6C29.9,89,34.7,87,39,87h117.9
			c4.3,0,9.1,2,11.1,4.5l25.4,33.9c1.1,1.4,0.7,2.8,0.4,3.4C192.4,131.5,187.2,132,185,132z M39,89.8c-3,0-7.4,1.6-8.8,3.4
			L4.9,127.1c-0.1,0.1-0.1-0.2-0.1-0.1c0.1,0.3,1.9,1,6.2,1H185c4.3,0,6.1-0.7,6.2-1.1l0,0c0,0,0,0.1-0.1,0l-25.4-33.7
			c-1.4-1.9-5.4-3.2-8.8-3.2H39V89.8z"/>
	</g>
	<path id="XMLID_12_" class="st3" d="M114.7,72H81.5c-0.4,0-0.7-0.1-0.7-0.5s0.3-0.5,0.7-0.5h33.2c0.4,0,0.7,0.1,0.7,0.5
		S115.1,72,114.7,72z"/>
	<g>
		<path id="XMLID_11_" class="st3" d="M98,53.2c0.4,0,0,0.3,0,0.7v12.4c0,0.4,0.4,0.7,0,0.7s0-0.3,0-0.7V53.9
			C98,53.5,97.6,53.2,98,53.2z"/>
		<path id="XMLID_10_" class="st3" d="M97.8,53.2c0.2,0,0.4,0.1,0.5,0.2l4.1,4.1c0.3,0.3,0.3,0.7,0,1c-0.3,0.3-0.7,0.3-1,0l-3.6-3.6
			l-3.6,3.6c-0.3,0.3-0.7,0.3-1,0c-0.3-0.3-0.3-0.7,0-1l4.1-4.1C97.5,53.3,97.6,53.2,97.8,53.2z"/>
	</g>
	<path class="st3" d="M176.6,116H20.2c-0.3,0-0.5,0.1-0.6-0.1c-0.1-0.2-0.1-0.4,0-0.6l14.3-20.9c0.1-0.2,0.4-0.3,0.6-0.3h127.9
		c0.2,0,0.5,0.2,0.6,0.4l14.2,21c0.1,0.2,0.2,0.3,0,0.5C177.1,116.1,176.9,116,176.6,116z M21.6,115h153.7L162,96H34.9L21.6,115z"/>
	<g>
		<path id="XMLID_7_" class="st3" d="M108.5,51.5c-0.4,0-0.8-0.2-1.1-0.5c-0.1-0.1-3.3-3.6-9.6-3.6c-6.3,0-9.4,3.5-9.6,3.6
			c-0.5,0.6-1.4,0.7-2,0.1c-0.6-0.5-0.7-1.4-0.1-2c0.2-0.2,4.1-4.6,11.7-4.6c7.7,0,11.6,4.4,11.7,4.6c0.5,0.6,0.5,1.5-0.1,2
			C109.2,51.3,108.8,51.5,108.5,51.5z"/>
		<path id="XMLID_6_" class="st3" d="M112.9,46.1c-0.4,0-0.8-0.2-1.1-0.5c-0.1-0.1-4.8-5.1-14-5.1s-13.9,5-14,5.1
			c-0.5,0.6-1.4,0.6-2,0.1c-0.6-0.5-0.6-1.4-0.1-2c0.2-0.2,5.6-6.1,16.2-6.1c10.6,0,15.9,5.8,16.2,6.1c0.5,0.6,0.5,1.5-0.1,2
			C113.6,46,113.3,46.1,112.9,46.1z"/>
		<path id="XMLID_5_" class="st3" d="M117.4,40.8c-0.4,0-0.8-0.2-1.1-0.5c-0.1-0.1-6.3-6.6-18.5-6.6s-18.4,6.5-18.5,6.6
			c-0.5,0.6-1.4,0.6-2,0.1c-0.6-0.5-0.6-1.4-0.1-2c0.3-0.3,7.1-7.5,20.6-7.5s20.3,7.2,20.6,7.5c0.5,0.6,0.5,1.5-0.1,2
			C118.1,40.7,117.7,40.8,117.4,40.8z"/>
		<path id="XMLID_4_" class="st3" d="M121.8,35.5c-0.4,0-0.8-0.2-1-0.5c-0.1-0.1-7.8-8.1-22.9-8.1S75,34.9,74.9,35
			c-0.5,0.6-1.4,0.6-2,0.1c-0.6-0.5-0.6-1.4-0.1-2c0.3-0.4,8.6-9,25-9c16.4,0,24.7,8.6,25,9c0.5,0.6,0.5,1.5-0.1,2
			C122.5,35.4,122.2,35.5,121.8,35.5z"/>
		<path id="XMLID_3_" class="st3" d="M126.2,30.2c-0.4,0-0.8-0.1-1-0.4c-0.1-0.1-9.3-9.6-27.4-9.6s-27.3,9.5-27.4,9.6
			c-0.5,0.6-1.5,0.6-2,0.1c-0.6-0.5-0.6-1.5-0.1-2c0.4-0.4,10.1-10.5,29.5-10.5s29.1,10,29.5,10.5c0.5,0.6,0.5,1.5-0.1,2
			C127,30,126.6,30.2,126.2,30.2z"/>
	</g>
	<g>
		<path class="st3" d="M185,139H10.9c-2.3,0-6.5-0.8-8.3-2.8c-0.6-0.7-0.9-1.7-0.8-2.6l0.1-5.9c0-0.1,0.1-0.4,0.1-0.6v-0.1
			c0-1.2,1.8-1.9,2.6-0.9c0.3,0.3,0.4,0.8,0.4,1.2v0.1c0,0.4,1.7,0.6,5.9,0.6H185c4.1,0,6-0.2,6-0.6v-0.1c0-0.4,0.2-0.8,0.4-1.1
			c0.8-0.9,2.5-0.3,2.6,0.9c0,0.2,0,0.5,0,0.7v5.8c0,0.7-0.1,2-0.7,2.7C191.5,138.2,187.3,139,185,139z M5,130.7v2.8
			c0,0.5,1.6,1.5,5.9,1.5H185c4.3,0,6.1-1,6.2-1.4l0-2.7c-1.5,0.6-3.6,1.1-6.2,1.1H10.9C8.4,132,6,131.3,5,130.7z"/>
	</g>
</g>
</svg>
